{
.appVersion = "3108";
.formatVersion = 3;
date = "2022-02-21 08:08:28 +0000";
familyName = QBeginners;
fontMaster = (
{
guides = (
{
pos = (632,650);
},
{
pos = (416,175);
},
{
pos = (170,350);
},
{
pos = (127,568);
}
);
iconName = SemiLight;
id = m01;
metricValues = (
{
over = 4;
pos = 700;
},
{
over = 4;
pos = 650;
},
{
over = 4;
pos = 350;
},
{
over = -4;
},
{
over = -4;
pos = -300;
},
{
over = -16;
pos = 10;
}
);
name = "QBeginners Light";
stemValues = (
50,
50
);
visible = 1;
}
);
glyphs = (
{
glyphname = A;
lastChange = "2022-02-22 14:51:41 +0000";
layers = (
{
layerId = m01;
shapes = (
{
closed = 1;
nodes = (
(32,0,o),
(38,1,o),
(42,4,cs),
(52,10,o),
(54,18,o),
(58,25,cs),
(367,619,ls),
(375,635,o),
(367,650,o),
(346,650,cs),
(324,650,o),
(323,639,o),
(316,625,cs),
(7,32,ls),
(2,23,o),
(2,15,o),
(5,10,cs),
(9,3,o),
(17,0,o),
(24,0,cs)
);
},
{
closed = 1;
nodes = (
(417,0,o),
(423,11,o),
(422,26,cs),
(372,631,l),
(325,613,l),
(373,24,ls),
(374,14,o),
(377,0,o),
(399,0,c)
);
},
{
closed = 1;
nodes = (
(373,305,l),
(373,350,l),
(193,350,l),
(193,305,l)
);
}
);
width = 479;
}
);
unicode = 65;
},
{
glyphname = B;
lastChange = "2022-02-22 14:14:28 +0000";
layers = (
{
layerId = m01;
shapes = (
{
closed = 1;
nodes = (
(113,600,l),
(290,600,o),
(388,558,o),
(388,488,cs),
(388,366,o),
(204,374,o),
(78,374,c),
(71,324,l),
(243,324,o),
(438,321,o),
(438,493,cs),
(438,597,o),
(311,650,o),
(113,650,c)
);
},
{
closed = 1;
nodes = (
(19,-4,o),
(22,15,o),
(24,25,cs),
(129,619,ls),
(132,637,o),
(130,650,o),
(109,650,cs),
(87,650,o),
(82,639,o),
(79,623,cs),
(-26,27,ls),
(-29,12,o),
(-21,-4,o),
(-3,-4,cs)
);
},
{
closed = 1;
nodes = (
(62,324,l),
(246,324,o),
(334,250,o),
(334,174,cs),
(334,50,o),
(133,46,o),
(7,46,c),
(0,-4,l),
(172,-4,o),
(384,7,o),
(384,179,cs),
(384,283,o),
(260,374,o),
(62,374,c)
);
}
);
width = 424;
}
);
metricRight = O;
unicode = 66;
},
{
glyphname = C;
lastChange = "2022-02-22 14:16:59 +0000";
layers = (
{
layerId = m01;
shapes = (
{
closed = 1;
nodes = (
(258,-4,o),
(341,47,o),
(438,193,cs),
(450,211,o),
(434,227,o),
(416,227,cs),
(406,227,o),
(398,223,o),
(393,216,cs,{
name = "🔷";
}),
(305,89,o),
(240,46,o),
(181,46,cs),
(114,46,o),
(109,89,o),
(109,154,cs),
(109,200,o),
(128,310,o),
(140,374,cs),
(158,468,o),
(201,599,o),
(438,600,c),
(491,600,l),
(506,600,o),
(516,613,o),
(516,626,cs),
(516,638,o),
(507,650,o),
(495,650,c),
(439,650,l),
(166,647,o),
(110,498,o),
(90,386,cs),
(78,318,o),
(58,203,o),
(58,153,cs),
(58,70,o),
(80,-4,o),
(181,-4,cs)
);
}
);
width = 492;
}
);
metricLeft = O;
metricRight = N;
unicode = 67;
},
{
glyphname = D;
lastChange = "2022-02-22 14:17:57 +0000";
layers = (
{
layerId = m01;
shapes = (
{
closed = 1;
nodes = (
(55,0,l),
(116,0,ls),
(308,0,o),
(499,150,o),
(499,350,cs),
(499,543,o),
(388,650,o),
(199,650,c),
(170,650,l),
(170,600,l),
(203,600,ls),
(356,600,o),
(449,511,o),
(449,350,cs),
(449,177,o),
(281,50,o),
(116,50,cs),
(57,50,l)
);
},
{
closed = 1;
nodes = (
(74,0,o),
(78,15,o),
(80,25,cs),
(184,619,ls),
(187,637,o),
(185,650,o),
(164,650,cs),
(142,650,o),
(137,639,o),
(134,623,cs),
(29,27,ls),
(26,12,o),
(34,0,o),
(52,0,cs)
);
}
);
width = 511;
}
);
metricLeft = N;
metricRight = O;
unicode = 68;
},
{
glyphname = E;
lastChange = "2022-02-22 14:39:25 +0000";
layers = (
{
layerId = m01;
shapes = (
{
closed = 1;
nodes = (
(74,0,o),
(78,15,o),
(80,25,c),
(184,619,l),
(187,637,o),
(185,650,o),
(164,650,cs),
(142,650,o),
(137,639,o),
(134,623,c),
(29,27,l),
(26,12,o),
(34,0,o),
(52,0,cs)
);
},
{
closed = 1;
nodes = (
(406,305,ls),
(426,305,o),
(432,315,o),
(432,327,cs),
(432,339,o),
(426,350,o),
(406,350,cs),
(109,350,l),
(109,305,l)
);
},
{
closed = 1;
nodes = (
(488,600,ls),
(508,600,o),
(514,613,o),
(514,625,cs),
(514,637,o),
(508,650,o),
(488,650,cs),
(165,650,l),
(165,600,l)
);
},
{
closed = 1;
nodes = (
(380,0,ls),
(400,0,o),
(406,14,o),
(406,26,cs),
(406,38,o),
(400,50,o),
(380,50,cs),
(53,50,l),
(53,0,l)
);
}
);
width = 490;
}
);
metricLeft = N;
metricRight = N;
unicode = 69;
},
{
glyphname = F;
lastChange = "2022-02-22 14:38:55 +0000";
layers = (
{
layerId = m01;
shapes = (
{
closed = 1;
nodes = (
(74,0,o),
(78,15,o),
(80,25,cs),
(184,619,ls),
(187,637,o),
(185,650,o),
(164,650,cs),
(142,650,o),
(137,639,o),
(134,623,cs),
(29,27,ls),
(26,12,o),
(34,0,o),
(52,0,cs)
);
},
{
closed = 1;
nodes = (
(405,305,ls),
(425,305,o),
(431,315,o),
(431,327,cs),
(431,339,o),
(425,350,o),
(405,350,cs),
(109,350,l),
(109,305,l)
);
},
{
closed = 1;
nodes = (
(488,600,ls),
(508,600,o),
(514,613,o),
(514,625,cs),
(514,637,o),
(508,650,o),
(488,650,cs),
(165,650,l),
(165,600,l)
);
}
);
width = 490;
}
);
metricLeft = N;
metricRight = N;
unicode = 70;
},
{
glyphname = G;
lastChange = "2022-02-22 14:26:19 +0000";
layers = (
{
layerId = m01;
shapes = (
{
closed = 1;
nodes = (
(252,-4,o),
(365,169,o),
(462,315,c),
(440,349,l),
(430,349,o),
(422,345,o),
(417,338,cs,{
name = "🔷";
}),
(329,203,o),
(222,46,o),
(169,46,cs),
(117,46,o),
(108,89,o),
(108,154,cs),
(108,200,o),
(126,310,o),
(139,374,cs),
(158,468,o),
(201,600,o),
(438,600,cs),
(494,600,l),
(509,600,o),
(519,613,o),
(519,626,cs),
(519,638,o),
(510,650,o),
(498,650,c),
(439,650,ls),
(166,650,o),
(110,498,o),
(90,386,cs),
(78,318,o),
(58,203,o),
(58,153,cs),
(58,70,o),
(83,-4,o),
(169,-4,cs)
);
},
{
closed = 1;
nodes = (
(407,-1,o),
(412,16,o),
(414,27,cs),
(466,323,ls),
(467,330,o),
(467,338,o),
(465,342,cs),
(462,347,o),
(456,350,o),
(448,350,c),
(438,350,o),
(431,348,o),
(426,344,cs),
(421,340,o),
(417,333,o),
(415,323,cs),
(363,27,ls),
(361,15,o),
(364,1,o),
(384,0,cs)
);
}
);
width = 495;
}
);
metricLeft = O;
metricRight = N;
unicode = 71;
},
{
glyphname = H;
lastChange = "2022-02-22 14:38:21 +0000";
layers = (
{
layerId = m01;
shapes = (
{
closed = 1;
nodes = (
(474,0,o),
(480,13,o),
(482,22,cs),
(587,621,ls),
(590,638,o),
(584,650,o),
(564,650,cs),
(546,650,o),
(539,638,o),
(537,628,cs),
(432,27,ls),
(430,15,o),
(432,0,o),
(455,0,cs)
);
},
{
closed = 1;
nodes = (
(74,0,o),
(78,15,o),
(80,25,cs),
(184,619,ls),
(187,637,o),
(181,650,o),
(164,650,cs),
(145,650,o),
(137,639,o),
(134,623,cs),
(29,27,ls),
(26,12,o),
(34,0,o),
(52,0,cs)
);
},
{
closed = 1;
nodes = (
(503,305,l),
(503,350,l),
(119,350,l),
(119,305,l)
);
}
);
width = 564;
}
);
metricLeft = N;
metricRight = N;
unicode = 72;
},
{
glyphname = I;
lastChange = "2022-02-22 14:40:33 +0000";
layers = (
{
layerId = m01;
shapes = (
{
closed = 1;
nodes = (
(127,25,l),
(231,619,l),
(181,623,l),
(76,27,l)
);
},
{
closed = 1;
nodes = (
(252,605,ls),
(272,605,o),
(278,616,o),
(278,628,cs),
(278,640,o),
(272,650,o),
(252,650,cs),
(163,650,ls),
(143,650,o),
(137,640,o),
(137,628,cs),
(137,616,o),
(143,605,o),
(163,605,cs)
);
},
{
closed = 1;
nodes = (
(144,0,ls),
(164,0,o),
(170,11,o),
(170,23,cs),
(170,35,o),
(164,45,o),
(144,45,cs),
(55,45,ls),
(35,45,o),
(29,35,o),
(29,23,cs),
(29,11,o),
(35,0,o),
(55,0,cs)
);
}
);
width = 254;
}
);
metricLeft = N;
metricRight = N;
unicode = 73;
},
{
glyphname = J;
lastChange = "2022-02-22 14:31:15 +0000";
layers = (
{
layerId = m01;
shapes = (
{
closed = 1;
nodes = (
(60,0,o),
(150,5,o),
(169,7,cs),
(239,16,o),
(276,46,o),
(301,86,cs),
(335,140,o),
(344,216,o),
(359,301,c),
(417,626,l),
(365,621,l),
(308,301,l),
(296,232,o),
(287,161,o),
(258,113,cs),
(240,82,o),
(214,63,o),
(173,58,cs),
(146,55,o),
(53,51,o),
(29,51,cs),
(17,51,o),
(4,39,o),
(4,25,cs),
(4,10,o),
(17,0,o),
(29,0,cs)
);
},
{
closed = 1;
nodes = (
(523,600,ls),
(543,600,o),
(549,613,o),
(549,625,cs),
(549,637,o),
(543,650,o),
(523,650,cs),
(259,650,ls),
(239,650,o),
(233,637,o),
(233,625,cs),
(233,613,o),
(239,600,o),
(259,600,cs)
);
}
);
width = 500;
}
);
metricLeft = T;
metricRight = T;
unicode = 74;
},
{
glyphname = K;
lastChange = "2022-02-22 15:08:30 +0000";
layers = (
{
layerId = m01;
shapes = (
{
closed = 1;
nodes = (
(470,606,ls),
(475,611,o),
(477,617,o),
(477,626,cs),
(477,633,o),
(475,640,o),
(468,645,cs),
(461,650,o),
(454,651,o),
(448,650,cs),
(441,648,o),
(435,642,o),
(429,637,cs),
(93,359,l),
(92,344,l),
(319,18,ls),
(328,5,o),
(346,-7,o),
(362,3,cs),
(376,12,o),
(376,27,o),
(366,41,cs),
(154,345,l)
);
},
{
closed = 1;
nodes = (
(74,0,o),
(79,18,o),
(81,31,cs),
(185,624,ls),
(188,642,o),
(186,655,o),
(165,655,cs),
(143,655,o),
(138,644,o),
(135,628,cs),
(30,32,ls),
(27,17,o),
(35,0,o),
(53,0,cs)
);
}
);
width = 455;
}
);
metricLeft = N;
metricRight = N;
unicode = 75;
},
{
glyphname = L;
lastChange = "2022-02-22 14:37:57 +0000";
layers = (
{
layerId = m01;
shapes = (
{
closed = 1;
nodes = (
(74,0,o),
(77,15,o),
(79,25,cs),
(184,619,ls),
(187,637,o),
(184,650,o),
(164,650,cs),
(144,650,o),
(137,639,o),
(134,623,cs),
(29,27,ls),
(26,12,o),
(34,0,o),
(52,0,cs)
);
},
{
closed = 1;
nodes = (
(380,0,ls),
(398,0,o),
(406,14,o),
(406,26,cs),
(406,38,o),
(398,50,o),
(380,50,cs),
(53,50,l),
(53,0,l)
);
}
);
width = 488;
}
);
metricLeft = N;
metricRight = N;
unicode = 76;
},
{
glyphname = M;
lastChange = "2022-02-22 14:45:13 +0000";
layers = (
{
layerId = m01;
shapes = (
{
closed = 1;
nodes = (
(2,16,o),
(6,10,cs),
(10,4,o),
(17,0,o),
(25,0,cs),
(36,0,o),
(48,7,o),
(58,25,cs),
(367,619,l),
(372,628,o),
(370,637,o),
(364,643,cs),
(360,647,o),
(353,650,o),
(344,650,cs),
(326,650,o),
(321,639,o),
(314,625,cs),
(8,38,ls),
(2,26,o)
);
},
{
closed = 1;
nodes = (
(785,0,o),
(793,11,o),
(792,26,cs),
(743,622,ls),
(742,638,o),
(735,649,o),
(713,649,cs),
(692,649,o),
(693,626,o),
(694,608,cs),
(742,24,ls),
(743,14,o),
(748,0,o),
(769,0,c)
);
},
{
closed = 1;
nodes = (
(320,622,l),
(369,24,ls),
(370,14,o),
(374,0,o),
(396,0,c),
(414,0,o),
(420,11,o),
(419,26,cs),
(370,631,l)
);
},
{
closed = 1;
nodes = (
(705,648,l),
(694,644,o),
(690,635,o),
(684,624,cs),
(375,31,l),
(410,3,l),
(420,9,o),
(424,17,o),
(428,24,cs),
(737,617,l)
);
}
);
width = 849;
}
);
metricLeft = A;
metricRight = A;
unicode = 77;
},
{
glyphname = N;
lastChange = "2022-02-22 15:09:15 +0000";
layers = (
{
layerId = m01;
shapes = (
{
closed = 1;
nodes = (
(74,0,o),
(78,16,o),
(80,28,cs),
(183,612,ls),
(186,630,o),
(185,650,o),
(164,650,cs),
(142,650,o),
(137,639,o),
(134,623,cs),
(29,27,ls),
(26,12,o),
(34,0,o),
(52,0,cs)
);
},
{
closed = 1;
nodes = (
(478,0,o),
(481,15,o),
(483,25,cs),
(587,619,ls),
(590,637,o),
(587,650,o),
(568,650,cs),
(548,650,o),
(541,639,o),
(538,623,cs),
(433,27,ls),
(430,12,o),
(438,0,o),
(456,0,cs)
);
},
{
closed = 1;
nodes = (
(479,36,l),
(194,630,ls),
(187,645,o),
(177,654,o),
(156,648,c),
(146,610,l),
(429,21,ls),
(434,11,o),
(440,-2,o),
(461,3,c)
);
}
);
width = 564;
}
);
unicode = 78;
},
{
glyphname = O;
lastChange = "2022-02-22 08:57:49 +0000";
layers = (
{
layerId = m01;
shapes = (
{
closed = 1;
nodes = (
(358,-4,o),
(547,256,o),
(560,416,cs),
(566,481,o),
(557,536,o),
(532,576,cs),
(500,627,o),
(438,650,o),
(373,650,cs),
(307,650,o),
(237,626,o),
(193,584,cs),
(148,541,o),
(118,478,o),
(95,397,cs),
(87,369,o),
(78,322,o),
(73,270,cs),
(66,191,o),
(71,96,o),
(117,43,cs),
(132,25,o),
(162,-4,o),
(211,-4,cs)
);
},
{
closed = 1;
nodes = (
(179,47,o),
(165,66,o),
(151,83,cs),
(122,121,o),
(117,196,o),
(123,264,cs),
(127,310,o),
(137,355,o),
(145,388,cs),
(166,460,o),
(189,510,o),
(226,546,cs),
(262,581,o),
(310,600,o),
(381,600,cs),
(433,600,o),
(468,579,o),
(488,545,cs),
(508,513,o),
(515,467,o),
(510,415,cs),
(497,269,o),
(301,47,o),
(217,47,cs)
);
}
);
width = 557;
}
);
unicode = 79;
},
{
glyphname = P;
lastChange = "2022-02-22 15:10:00 +0000";
layers = (
{
layerId = m01;
shapes = (
{
closed = 1;
nodes = (
(168,600,l),
(350,600,o),
(427,558,o),
(427,488,cs),
(427,367,o),
(259,374,o),
(133,374,c),
(126,324,l),
(298,324,o),
(477,321,o),
(477,493,cs),
(477,597,o),
(367,650,o),
(168,650,c)
);
},
{
closed = 1;
nodes = (
(74,-4,o),
(78,15,o),
(80,25,cs),
(184,619,ls),
(187,637,o),
(185,650,o),
(164,650,cs),
(142,650,o),
(137,639,o),
(134,623,cs),
(29,27,ls),
(26,12,o),
(34,-4,o),
(52,-4,cs)
);
}
);
width = 462;
}
);
metricLeft = N;
metricRight = O;
unicode = 80;
},
{
glyphname = Q;
lastChange = "2022-02-22 15:03:53 +0000";
layers = (
{
layerId = m01;
shapes = (
{
closed = 1;
nodes = (
(359,-4,o),
(547,256,o),
(560,416,cs),
(566,481,o),
(557,536,o),
(532,576,cs),
(500,627,o),
(438,650,o),
(373,650,cs),
(307,650,o),
(237,626,o),
(193,584,cs),
(148,541,o),
(118,478,o),
(95,397,cs),
(87,369,o),
(78,322,o),
(73,270,cs),
(66,191,o),
(71,96,o),
(117,43,cs),
(132,25,o),
(162,-4,o),
(211,-4,cs)
);
},
{
closed = 1;
nodes = (
(423,-38,o),
(424,-18,o),
(416,-6,cs),
(308,151,ls),
(298,165,o),
(279,171,o),
(265,160,cs),
(253,150,o),
(256,139,o),
(267,123,cs),
(371,-29,ls),
(381,-44,o),
(396,-53,o),
(410,-45,cs)
);
},
{
closed = 1;
nodes = (
(179,47,o),
(165,66,o),
(151,83,cs),
(122,121,o),
(117,196,o),
(123,264,cs),
(127,310,o),
(137,355,o),
(145,388,cs),
(166,460,o),
(189,510,o),
(226,546,cs),
(262,581,o),
(310,600,o),
(381,600,cs),
(433,600,o),
(468,579,o),
(488,545,cs),
(508,513,o),
(515,467,o),
(510,415,cs),
(497,272,o),
(319,47,o),
(217,47,cs)
);
}
);
width = 557;
}
);
metricLeft = O;
metricRight = O;
unicode = 81;
},
{
glyphname = R;
lastChange = "2022-02-22 15:09:02 +0000";
layers = (
{
layerId = m01;
shapes = (
{
closed = 1;
nodes = (
(168,600,l),
(346,600,o),
(426,558,o),
(426,488,cs),
(426,366,o),
(259,374,o),
(133,374,c),
(126,323,l),
(298,323,o),
(476,321,o),
(476,493,cs),
(476,597,o),
(366,650,o),
(168,650,c)
);
},
{
closed = 1;
nodes = (
(74,0,o),
(78,16,o),
(81,31,cs),
(184,619,ls),
(187,637,o),
(185,650,o),
(164,650,cs),
(142,650,o),
(137,639,o),
(134,623,cs),
(30,33,ls),
(27,16,o),
(34,0,o),
(52,0,cs)
);
},
{
closed = 1;
nodes = (
(112,353,l),
(345,18,ls),
(354,5,o),
(363,0,o),
(371,0,cs),
(381,0,o),
(390,8,o),
(393,16,cs),
(396,24,o),
(396,34,o),
(391,42,cs),
(180,346,l)
);
}
);
width = 461;
}
);
metricLeft = N;
metricRight = O;
unicode = 82;
},
{
glyphname = S;
lastChange = "2022-02-22 14:59:53 +0000";
layers = (
{
layerId = m01;
shapes = (
{
closed = 1;
nodes = (
(171,0,ls),
(269,0,o),
(443,50,o),
(443,185,cs),
(443,269,o),
(373,318,o),
(291,375,cs),
(228,419,o),
(163,452,o),
(163,492,cs),
(163,555,o),
(271,600,o),
(348,600,cs),
(503,600,ls),
(516,600,o),
(526,613,o),
(526,626,cs),
(526,650,o),
(506,650,o),
(502,650,cs),
(349,650,ls),
(220,650,o),
(112,576,o),
(112,492,cs),
(112,422,o),
(190,385,o),
(259,336,cs),
(340,278,o),
(393,241,o),
(393,185,cs),
(393,83,o),
(236,50,o),
(171,50,cs),
(51,50,ls),
(38,50,o),
(27,37,o),
(27,24,cs),
(27,0,o),
(49,0,o),
(51,0,cs)
);
}
);
width = 485;
}
);
metricLeft = O;
metricRight = O;
unicode = 83;
},
{
glyphname = T;
lastChange = "2022-02-22 08:56:57 +0000";
layers = (
{
layerId = m01;
shapes = (
{
closed = 1;
nodes = (
(460,600,ls),
(480,600,o),
(486,613,o),
(486,625,cs),
(486,637,o),
(480,650,o),
(460,650,cs),
(136,650,ls),
(116,650,o),
(110,637,o),
(110,625,cs),
(110,613,o),
(116,600,o),
(136,600,cs)
);
},
{
closed = 1;
nodes = (
(212,0,o),
(215,15,o),
(217,25,c),
(321,619,l),
(324,637,o),
(323,650,o),
(302,650,cs),
(280,650,o),
(275,639,o),
(272,623,c),
(167,27,l),
(164,12,o),
(172,0,o),
(190,0,cs)
);
}
);
width = 437;
}
);
unicode = 84;
},
{
glyphname = U;
lastChange = "2022-02-22 08:56:57 +0000";
layers = (
{
layerId = m01;
shapes = (
{
closed = 1;
nodes = (
(497,520,l),
(495,509,l),
(473,415,o),
(423,331,o),
(394,283,cs),
(369,241,o),
(327,183,o),
(281,136,cs),
(235,87,o),
(184,49,o),
(146,49,cs),
(119,49,o),
(109,61,o),
(105,72,cs),
(98,90,o),
(101,137,o),
(107,175,c,{
name = "💚";
}),
(186,615,l,{
name = "💚";
}),
(189,632,o),
(184,650,o),
(164,650,cs,{
name = "❌";
}),
(148,650,o),
(139,636,o),
(137,625,c,{
name = "💚";
}),
(56,178,l,{
name = "💚";
}),
(51,140,o),
(48,90,o),
(56,60,cs),
(63,34,o),
(88,0,o),
(146,0,cs,{
name = "❌";
}),
(197,0,o),
(259,47,o),
(314,104,cs),
(365,156,o),
(410,216,o),
(437,257,cs),
(448,274,o),
(459,297,o),
(501,381,c),
(543,520,l)
);
},
{
closed = 1;
nodes = (
(455,0,o),
(461,13,o),
(463,22,c),
(569,624,l),
(572,639,o),
(565,650,o),
(545,650,cs),
(527,650,o),
(520,639,o),
(519,631,c),
(413,27,l),
(411,15,o),
(413,0,o),
(436,0,cs)
);
}
);
width = 545;
}
);
metricLeft = N;
metricRight = N;
unicode = 85;
},
{
glyphname = V;
lastChange = "2022-02-22 08:56:57 +0000";
layers = (
{
layerId = m01;
shapes = (
{
closed = 1;
nodes = (
(525,650,o),
(519,649,o),
(515,646,cs),
(505,640,o),
(501,632,o),
(497,625,cs),
(188,31,ls),
(180,15,o),
(190,0,o),
(211,0,cs),
(233,0,o),
(234,11,o),
(241,25,cs),
(550,618,ls),
(555,627,o),
(555,635,o),
(552,640,cs),
(548,647,o),
(540,650,o),
(533,650,cs)
);
},
{
closed = 1;
nodes = (
(140,650,o),
(134,639,o),
(135,624,cs),
(184,28,l),
(185,18,o),
(188,11,o),
(196,5,c),
(233,37,l),
(185,626,ls),
(184,636,o),
(180,650,o),
(158,650,c)
);
}
);
width = 529;
}
);
metricLeft = N;
metricRight = N;
unicode = 86;
},
{
glyphname = W;
lastChange = "2022-02-22 08:56:57 +0000";
layers = (
{
layerId = m01;
shapes = (
{
closed = 1;
nodes = (
(897,650,o),
(891,649,o),
(887,646,cs),
(877,640,o),
(873,632,o),
(869,625,cs),
(560,31,l),
(555,22,o),
(557,13,o),
(563,7,cs),
(567,3,o),
(574,0,o),
(583,0,cs),
(601,0,o),
(606,11,o),
(613,25,cs),
(922,618,ls),
(927,627,o),
(927,635,o),
(924,640,cs),
(920,647,o),
(912,650,o),
(905,650,cs)
);
},
{
closed = 1;
nodes = (
(140,650,o),
(134,639,o),
(135,624,cs),
(184,28,ls),
(185,12,o),
(192,1,o),
(214,1,cs),
(235,1,o),
(234,19,o),
(233,37,cs),
(185,626,ls),
(184,636,o),
(180,650,o),
(158,650,c)
);
},
{
closed = 1;
nodes = (
(607,28,l),
(558,626,ls),
(557,636,o),
(553,650,o),
(531,650,c),
(513,650,o),
(507,639,o),
(508,624,cs),
(557,19,l)
);
},
{
closed = 1;
nodes = (
(222,2,l),
(233,6,o),
(237,15,o),
(243,26,cs),
(552,619,l),
(517,647,l),
(507,641,o),
(503,633,o),
(499,626,cs),
(190,32,l)
);
}
);
width = 901;
}
);
metricLeft = N;
metricRight = N;
unicode = 87;
},
{
glyphname = X;
lastChange = "2022-02-22 15:14:02 +0000";
layers = (
{
layerId = m01;
shapes = (
{
closed = 1;
nodes = (
(451,-3,o),
(464,3,cs),
(474,8,o),
(481,20,o),
(474,35,cs),
(189,631,ls),
(180,650,o),
(163,654,o),
(151,649,cs),
(139,645,o),
(132,631,o),
(141,613,cs),
(424,19,ls),
(433,0,o)
);
},
{
closed = 1;
nodes = (
(28,13,o),
(37,6,cs),
(48,-3,o),
(66,-4,o),
(78,11,cs),
(573,609,ls),
(585,624,o),
(582,638,o),
(573,645,cs),
(563,653,o),
(546,652,o),
(533,637,cs),
(35,38,ls),
(25,26,o)
);
}
);
width = 559;
}
);
metricLeft = N;
metricRight = N;
unicode = 88;
},
{
glyphname = Y;
lastChange = "2022-02-22 08:56:57 +0000";
layers = (
{
layerId = m01;
shapes = (
{
closed = 1;
nodes = (
(549,609,l),
(555,616,o),
(557,623,o),
(557,629,cs),
(557,635,o),
(554,641,o),
(548,645,cs),
(541,650,o),
(534,651,o),
(528,650,cs),
(521,648,o),
(514,643,o),
(509,637,c),
(255,333,l),
(285,291,l)
);
},
{
closed = 1;
nodes = (
(250,0,o),
(253,15,o),
(255,25,c),
(312,350,l),
(262,350,l),
(205,27,l),
(202,12,o),
(210,0,o),
(228,0,cs)
);
},
{
closed = 1;
nodes = (
(297,345,l),
(161,630,l),
(157,638,o),
(152,645,o),
(145,648,cs),
(140,651,o),
(133,651,o),
(125,648,cs),
(117,645,o),
(112,640,o),
(111,634,cs),
(110,628,o),
(111,621,o),
(115,613,c),
(261,307,l)
);
}
);
width = 507;
}
);
metricLeft = T;
metricRight = T;
unicode = 89;
},
{
glyphname = Z;
lastChange = "2022-02-22 15:16:24 +0000";
layers = (
{
layerId = m01;
shapes = (
{
closed = 1;
nodes = (
(26,22,o),
(31,13,cs),
(35,6,o),
(45,0,o),
(62,0,cs),
(68,0,o),
(75,7,o),
(79,11,cs),
(574,608,ls),
(583,619,o),
(583,630,o),
(579,638,cs),
(574,645,o),
(563,650,o),
(552,650,cs),
(545,650,o),
(537,644,o),
(532,638,c),
(34,39,ls),
(28,32,o)
);
},
{
closed = 1;
nodes = (
(556,600,l),
(556,650,l),
(162,650,ls),
(142,650,o),
(136,637,o),
(136,625,cs),
(136,613,o),
(142,600,o),
(162,600,cs)
);
},
{
closed = 1;
nodes = (
(448,0,ls),
(468,0,o),
(474,13,o),
(474,25,cs),
(474,37,o),
(468,50,o),
(448,50,cs),
(55,50,l),
(55,0,l)
);
}
);
width = 557;
}
);
metricLeft = N;
metricRight = N;
unicode = 90;
},
{
glyphname = a;
lastChange = "2022-02-22 16:19:12 +0000";
layers = (
{
layerId = m01;
shapes = (
{
closed = 1;
nodes = (
(148,-4,o),
(200,50,o),
(237,97,cs),
(290,163,o),
(346,236,o),
(362,291,cs),
(365,301,l),
(320,301,l),
(292,254,o),
(259,205,o),
(204,136,cs),
(157,77,o),
(120,47,o),
(105,47,cs),
(87,47,o),
(87,62,o),
(87,78,cs),
(87,116,o),
(105,206,o),
(131,245,cs),
(161,290,o),
(212,300,o),
(246,300,cs),
(253,300,o),
(321,300,o),
(329,300,c),
(340,300,l),
(340,302,o),
(340,347,o),
(340,350,c),
(328,350,o),
(266,350,o),
(246,350,cs),
(189,350,o),
(130,333,o),
(92,276,cs),
(60,228,o),
(37,131,o),
(37,73,cs),
(37,22,o),
(57,-4,o),
(90,-4,cs)
);
},
{
closed = 1;
nodes = (
(326,0,o),
(328,18,o),
(329,23,cs),
(382,322,ls,{
name = "💚";
}),
(383,329,o),
(383,337,o),
(380,342,cs),
(377,347,o),
(373,350,o),
(366,350,c),
(320,350,l),
(320,261,l),
(278,23,ls),
(277,15,o),
(278,0,o),
(300,0,cs)
);
}
);
width = 411;
}
);
metricLeft = o;
metricRight = n;
unicode = 97;
},
{
glyphname = b;
lastChange = "2022-02-22 16:18:36 +0000";
layers = (
{
layerId = m01;
shapes = (
{
closed = 1;
nodes = (
(82,0,o),
(144,0,o),
(164,0,cs),
(221,0,o),
(280,17,o),
(318,74,cs),
(350,122,o),
(373,219,o),
(373,277,cs),
(373,328,o),
(353,354,o),
(320,354,cs),
(262,354,o),
(208,300,o),
(171,253,cs),
(118,187,o),
(69,114,o),
(49,60,cs),
(45,49,l),
(90,49,l),
(118,96,o),
(151,145,o),
(206,214,cs),
(253,273,o),
(290,303,o),
(305,303,cs),
(323,303,o),
(324,289,o),
(324,273,cs),
(324,243,o),
(305,144,o),
(279,105,cs),
(249,60,o),
(203,50,o),
(164,50,cs),
(157,50,o),
(89,50,o),
(81,50,c),
(70,50,l),
(70,48,o),
(70,3,o),
(70,0,c)
);
},
{
closed = 1;
nodes = (
(90,0,l),
(90,89,l),
(185,628,l),
(186,636,o),
(186,650,o),
(164,650,cs),
(138,650,o),
(136,633,o),
(135,628,c),
(28,22,l),
(26,10,o),
(32,0,o),
(44,0,c)
);
}
);
width = 412;
}
);
metricLeft = n;
metricRight = o;
unicode = 98;
},
{
glyphname = c;
lastChange = "2022-02-22 16:16:43 +0000";
layers = (
{
layerId = m01;
shapes = (
{
closed = 1;
nodes = (
(154,0,o),
(198,50,o),
(237,97,cs),
(245,107,o),
(271,137,o),
(271,152,cs),
(271,168,o),
(259,175,o),
(243,175,cs),
(230,175,o),
(211,145,o),
(204,136,cs),
(157,77,o),
(120,51,o),
(105,51,cs),
(87,51,o),
(87,62,o),
(87,78,cs),
(87,116,o),
(105,206,o),
(131,245,cs),
(161,290,o),
(212,300,o),
(246,300,cs),
(253,300,o),
(262,300,o),
(281,300,c),
(294,300,o),
(303,314,o),
(303,326,cs),
(303,337,o),
(294,350,o),
(281,350,c),
(269,350,o),
(266,350,o),
(246,350,cs),
(189,350,o),
(130,333,o),
(92,276,cs),
(60,228,o),
(37,131,o),
(37,73,cs),
(37,36,o),
(63,0,o),
(90,0,cs)
);
}
);
width = 329;
}
);
metricLeft = o;
metricRight = o;
unicode = 99;
},
{
glyphname = d;
lastChange = "2022-02-22 16:14:40 +0000";
layers = (
{
layerId = m01;
shapes = (
{
closed = 1;
nodes = (
(148,-5,o),
(200,49,o),
(237,96,cs),
(290,162,o),
(341,235,o),
(361,289,cs),
(365,300,l),
(320,300,l),
(291,253,o),
(258,204,o),
(204,135,cs),
(158,76,o),
(120,46,o),
(105,46,cs),
(87,46,o),
(87,61,o),
(87,77,cs),
(87,115,o),
(105,205,o),
(131,244,cs),
(161,289,o),
(212,299,o),
(246,299,cs),
(253,299,o),
(321,299,o),
(329,299,c),
(340,299,l),
(340,301,o),
(340,346,o),
(340,349,c),
(328,349,o),
(266,349,o),
(246,349,cs),
(189,349,o),
(130,332,o),
(92,275,cs),
(60,227,o),
(37,130,o),
(37,72,cs),
(37,21,o),
(57,-5,o),
(90,-5,cs)
);
},
{
closed = 1;
nodes = (
(389,0,o),
(408,19,o),
(428,50,cs),
(444,75,ls),
(447,79,o),
(450,86,o),
(450,93,cs),
(450,109,o),
(438,116,o),
(422,116,cs),
(415,116,o),
(407,108,o),
(404,104,cs),
(389,81,ls),
(375,59,o),
(367,48,o),
(358,48,cs),
(340,48,o),
(343,66,o),
(343,82,cs),
(343,93,o),
(348,124,o),
(349,132,cs),
(436,623,ls),
(438,634,o),
(441,650,o),
(418,650,cs),
(399,650,o),
(388,642,o),
(385,623,cs),
(300,146,ls),
(296,122,o),
(293,95,o),
(293,77,cs),
(293,26,o),
(319,0,o),
(343,0,cs)
);
}
);
width = 480;
}
);
metricLeft = o;
unicode = 100;
},
{
glyphname = e;
lastChange = "2022-02-22 16:04:17 +0000";
layers = (
{
layerId = m01;
shapes = (
{
closed = 1;
nodes = (
(199,0,o),
(237,50,o),
(261,82,cs),
(274,99,o),
(257,119,o),
(240,119,cs),
(230,119,o),
(223,115,o),
(216,106,cs),
(199,84,o),
(173,50,o),
(127,50,cs),
(81,50,o),
(88,98,o),
(92,122,c),
(100,127,o),
(134,141,o),
(171,162,cs),
(222,191,o),
(297,230,o),
(297,288,cs),
(297,332,o),
(262,353,o),
(227,353,cs),
(192,353,o),
(143,350,o),
(98,282,cs),
(70,240,o),
(44,167,o),
(39,108,cs),
(32,26,o),
(84,0,o),
(124,0,cs)
);
},
{
closed = 1;
nodes = (
(139,278,o),
(181,306,o),
(221,306,cs),
(237,306,o),
(246,300,o),
(246,291,cs),
(246,256,o),
(170,220,o),
(107,184,c)
);
}
);
width = 332;
}
);
metricLeft = o;
metricRight = o;
unicode = 101;
},
{
glyphname = f;
lastChange = "2022-02-22 16:21:44 +0000";
layers = (
{
layerId = m01;
shapes = (
{
closed = 1;
nodes = (
(133,0,o),
(140,15,o),
(142,27,cs),
(228,518,ls),
(235,558,o),
(264,600,o),
(297,600,c),
(391,600,l),
(408,600,o),
(416,614,o),
(416,625,cs),
(416,635,o),
(408,650,o),
(391,650,c),
(297,650,l),
(247,650,o),
(195,616,o),
(179,527,cs),
(91,28,ls),
(89,16,o),
(98,0,o),
(116,0,cs)
);
},
{
closed = 1;
nodes = (
(268,304,ls),
(288,304,o),
(294,316,o),
(294,328,cs),
(294,340,o),
(288,350,o),
(268,350,cs),
(74,350,ls),
(54,350,o),
(48,340,o),
(48,328,cs),
(48,316,o),
(54,304,o),
(74,304,cs)
);
}
);
width = 282;
}
);
metricLeft = t;
unicode = 102;
},
{
glyphname = g;
lastChange = "2022-02-22 16:11:22 +0000";
layers = (
{
layerId = m01;
shapes = (
{
closed = 1;
nodes = (
(27,-300,o),
(116,-295,o),
(135,-292,cs),
(203,-282,o),
(243,-254,o),
(268,-212,cs),
(301,-159,o),
(310,-83,o),
(325,1,c),
(383,326,l),
(386,343,o),
(375,350,o),
(358,350,c),
(333,350,l),
(309,198,l),
(274,1,l),
(262,-67,o),
(255,-138,o),
(226,-186,cs),
(208,-215,o),
(181,-236,o),
(139,-241,cs),
(112,-244,o),
(20,-250,o),
(-4,-250,cs),
(-16,-250,o),
(-29,-261,o),
(-29,-275,cs),
(-29,-290,o),
(-16,-300,o),
(-4,-300,cs)
);
},
{
closed = 1;
nodes = (
(152,-4,o),
(200,50,o),
(237,97,cs),
(290,163,o),
(338,240,o),
(361,292,cs),
(365,301,l),
(320,301,l),
(291,254,o),
(258,205,o),
(204,136,cs),
(158,77,o),
(120,47,o),
(105,47,cs),
(87,47,o),
(87,62,o),
(87,78,cs),
(87,116,o),
(105,206,o),
(131,245,cs),
(161,290,o),
(212,300,o),
(246,300,cs),
(253,300,o),
(321,300,o),
(329,300,c),
(340,300,l),
(340,302,o),
(340,347,o),
(340,350,c),
(328,350,o),
(266,350,o),
(246,350,cs),
(189,350,o),
(130,333,o),
(92,276,cs),
(60,228,o),
(37,131,o),
(37,73,cs),
(37,22,o),
(57,-4,o),
(90,-4,cs)
);
}
);
width = 411;
}
);
metricLeft = o;
metricRight = n;
unicode = 103;
},
{
glyphname = h;
lastChange = "2022-02-22 08:59:19 +0000";
layers = (
{
layerId = m01;
shapes = (
{
closed = 1;
nodes = (
(331,0,o),
(333,18,o),
(334,23,cs),
(373,234,ls),
(384,291,o),
(376,354,o),
(321,354,cs),
(229,354,o),
(139,203,o),
(81,116,c),
(74,11,l),
(143,126,o),
(257,305,o),
(312,305,cs),
(333,305,o),
(327,261,o),
(322,234,cs),
(283,23,ls),
(282,15,o),
(283,0,o),
(305,0,c)
);
},
{
closed = 1;
nodes = (
(76,0,o),
(78,18,o),
(79,23,cs),
(185,623,ls),
(186,630,o),
(186,638,o),
(184,642,cs),
(181,647,o),
(175,650,o),
(167,650,c),
(157,650,o),
(150,648,o),
(145,644,cs),
(140,640,o),
(136,633,o),
(134,623,cs),
(28,23,ls),
(27,15,o),
(28,0,o),
(50,0,cs)
);
}
);
width = 418;
}
);
metricLeft = n;
metricRight = n;
unicode = 104;
},
{
glyphname = i;
lastChange = "2022-02-22 08:59:19 +0000";
layers = (
{
layerId = m01;
shapes = (
{
closed = 1;
nodes = (
(77,0,o),
(79,18,o,{
name = "🔷";
}),
(80,23,c),
(133,323,l),
(135,340,o),
(132,350,o),
(115,350,c),
(95,350,o),
(86,341,o),
(82,323,c),
(29,23,l),
(28,15,o),
(29,0,o),
(51,0,cs)
);
},
{
closed = 1;
nodes = (
(149,441,o),
(162,453,o),
(162,467,cs),
(162,482,o),
(149,494,o),
(134,494,cs),
(119,494,o),
(107,481,o),
(107,467,cs),
(107,454,o),
(119,441,o),
(134,441,cs)
);
}
);
width = 163;
}
);
metricLeft = n;
metricRight = "=n-3";
unicode = 105;
},
{
glyphname = j;
lastChange = "2022-02-22 08:59:19 +0000";
layers = (
{
layerId = m01;
shapes = (
{
closed = 1;
nodes = (
(-221,-300,o),
(-131,-295,o),
(-112,-292,cs),
(-71,-286,o),
(-31,-280,o),
(0,-243,cs),
(35,-202,o),
(52,-143,o),
(78,1,c),
(136,326,l),
(139,343,o),
(128,350,o),
(111,350,c),
(96,350,o),
(89,346,o),
(84,321,c),
(27,1,l),
(4,-126,o),
(-10,-179,o),
(-39,-212,cs),
(-56,-231,o),
(-84,-241,o),
(-108,-244,cs),
(-135,-247,o),
(-228,-252,o),
(-252,-252,cs),
(-264,-252,o),
(-277,-261,o),
(-277,-275,cs),
(-277,-290,o),
(-264,-300,o),
(-252,-300,cs)
);
},
{
closed = 1;
nodes = (
(150,440,o),
(163,452,o),
(163,467,cs),
(163,483,o),
(150,495,o),
(135,495,cs),
(120,495,o),
(108,483,o),
(108,467,cs),
(108,452,o),
(120,440,o),
(135,440,cs)
);
}
);
width = 167;
}
);
metricRight = n;
unicode = 106;
},
{
glyphname = k;
lastChange = "2022-02-22 08:59:19 +0000";
layers = (
{
layerId = m01;
shapes = (
{
closed = 1;
nodes = (
(65,0,o),
(76,7,o),
(80,26,c),
(83,44,l),
(99,90,o),
(121,158,o),
(156,206,cs),
(176,234,o),
(198,257,o),
(218,273,cs),
(236,288,o),
(263,306,o),
(278,304,cs),
(286,303,o),
(289,296,o),
(290,288,cs),
(291,281,o),
(290,275,o),
(289,270,cs),
(284,247,o),
(261,233,o),
(238,217,cs),
(215,202,o),
(191,188,o),
(181,183,cs),
(162,173,l),
(317,10,l),
(322,5,o),
(330,0,o),
(338,0,cs),
(344,0,o),
(351,2,o),
(356,6,cs),
(361,10,o),
(364,16,o),
(364,22,cs),
(364,29,o),
(360,37,o),
(354,44,cs),
(337,63,o),
(246,156,o),
(241,161,c),
(255,168,o),
(272,179,o),
(287,192,cs),
(309,210,o),
(326,226,o),
(333,245,cs),
(341,268,o),
(340,291,o),
(336,310,cs),
(330,337,o),
(313,350,o),
(292,350,cs),
(257,350,o),
(224,333,o),
(194,310,cs),
(162,285,o),
(134,253,o),
(117,228,c),
(185,621,ls),
(189,642,o),
(177,650,o),
(161,650,cs),
(146,650,o),
(137,639,o),
(134,622,cs),
(29,26,l),
(26,10,o),
(36,0,o),
(49,0,cs)
);
}
);
width = 391;
}
);
metricLeft = n;
unicode = 107;
},
{
glyphname = l;
lastChange = "2022-02-22 08:59:19 +0000";
layers = (
{
layerId = m01;
shapes = (
{
closed = 1;
nodes = (
(70,0,o),
(76,10,o),
(78,22,c),
(185,629,l),
(186,636,o),
(181,650,o),
(159,650,cs),
(146,650,o),
(137,640,o),
(135,629,c),
(28,22,l),
(26,10,o),
(35,0,o),
(53,0,cs)
);
}
);
width = 160;
}
);
metricLeft = n;
metricRight = n;
unicode = 108;
},
{
glyphname = m;
lastChange = "2022-02-22 08:59:19 +0000";
layers = (
{
layerId = m01;
shapes = (
{
closed = 1;
nodes = (
(316,-1,o),
(318,17,o),
(319,22,cs),
(358,233,ls),
(369,290,o),
(361,353,o),
(306,353,cs),
(214,353,o),
(139,202,o),
(81,115,c),
(74,10,l),
(143,125,o),
(242,304,o),
(297,304,cs),
(318,304,o),
(312,260,o),
(307,233,cs),
(268,22,ls),
(267,14,o),
(268,-1,o),
(290,-1,c)
);
},
{
closed = 1;
nodes = (
(76,0,o),
(78,18,o),
(79,23,cs),
(132,323,ls),
(133,330,o),
(133,338,o),
(131,342,cs),
(128,347,o),
(122,350,o),
(114,350,c),
(104,350,o),
(97,348,o),
(92,344,cs),
(87,340,o),
(83,333,o),
(81,323,cs),
(28,23,ls),
(27,15,o),
(28,0,o),
(50,0,cs)
);
},
{
closed = 1;
nodes = (
(557,0,o),
(559,18,o),
(560,23,cs),
(599,234,ls),
(610,291,o),
(602,354,o),
(547,354,cs),
(455,354,o),
(380,203,o),
(322,116,c),
(315,11,l),
(384,126,o),
(483,305,o),
(538,305,cs),
(559,305,o),
(553,261,o),
(548,234,cs),
(509,23,ls),
(508,15,o),
(509,0,o),
(531,0,c)
);
}
);
width = 644;
}
);
metricLeft = n;
metricRight = n;
unicode = 109;
},
{
glyphname = n;
lastChange = "2022-02-22 08:59:19 +0000";
layers = (
{
layerId = m01;
shapes = (
{
closed = 1;
nodes = (
(331,0,o),
(333,18,o),
(334,23,cs),
(373,234,ls),
(384,291,o),
(376,354,o),
(321,354,cs),
(229,354,o),
(139,203,o),
(81,116,c),
(74,11,l),
(143,126,o),
(257,305,o),
(312,305,cs),
(333,305,o),
(327,261,o),
(322,234,cs),
(283,23,ls),
(282,15,o),
(283,0,o),
(305,0,c)
);
},
{
closed = 1;
nodes = (
(76,0,o),
(78,18,o),
(79,23,cs),
(132,323,ls),
(133,330,o),
(133,338,o),
(131,342,cs),
(128,347,o),
(122,350,o),
(114,350,c),
(104,350,o),
(97,348,o),
(92,344,cs),
(87,340,o),
(83,333,o),
(81,323,cs),
(28,23,ls),
(27,15,o),
(28,0,o),
(50,0,cs)
);
}
);
width = 418;
}
);
unicode = 110;
},
{
glyphname = o;
lastChange = "2022-02-22 16:03:56 +0000";
layers = (
{
layerId = m01;
shapes = (
{
closed = 1;
nodes = (
(209,-2,o),
(315,158,o),
(315,247,cs),
(315,319,o),
(280,351,o),
(208,351,cs),
(182,351,o),
(167,346,o),
(142,333,cs),
(122,321,o),
(103,298,o),
(87,269,cs),
(79,254,o),
(67,227,o),
(57,196,cs),
(48,167,o),
(41,135,o),
(41,105,cs),
(41,20,o),
(66,-2,o),
(112,-2,cs)
);
},
{
closed = 1;
nodes = (
(91,48,o),
(91,77,o),
(91,105,cs),
(91,126,o),
(97,157,o),
(106,186,cs),
(113,212,o),
(126,235,o),
(134,251,cs),
(147,273,o),
(156,284,o),
(171,292,cs),
(186,299,o),
(193,301,o),
(207,301,cs),
(247,301,o),
(265,287,o),
(265,247,cs),
(265,182,o),
(175,48,o),
(118,48,cs)
);
}
);
width = 356;
}
);
unicode = 111;
},
{
glyphname = p;
lastChange = "2022-02-22 08:59:19 +0000";
layers = (
{
layerId = m01;
shapes = (
{
closed = 1;
nodes = (
(83,0,o),
(145,0,o),
(165,0,cs),
(222,0,o),
(281,17,o),
(319,74,cs),
(351,122,o),
(374,219,o),
(374,277,cs),
(374,328,o),
(354,354,o),
(321,354,cs),
(263,354,o),
(211,300,o),
(174,253,cs),
(121,187,o),
(73,110,o),
(50,58,cs),
(46,49,l),
(91,49,l),
(119,96,o),
(152,145,o),
(207,214,cs),
(254,273,o),
(291,303,o),
(306,303,cs),
(324,303,o),
(324,288,o),
(324,272,cs),
(324,234,o),
(306,144,o),
(280,105,cs),
(250,60,o),
(199,50,o),
(165,50,cs),
(158,50,o),
(90,50,o),
(82,50,c),
(71,50,l),
(71,48,o),
(71,3,o),
(71,0,c)
);
},
{
closed = 1;
nodes = (
(23,-300,o),
(25,-282,o),
(26,-277,cs),
(133,327,ls),
(134,335,o),
(133,350,o),
(111,350,cs),
(85,350,o),
(83,332,o),
(82,327,cs),
(-25,-277,ls),
(-26,-285,o),
(-25,-300,o),
(-3,-300,cs)
);
}
);
width = 413;
}
);
metricLeft = n;
metricRight = o;
unicode = 112;
},
{
glyphname = q;
lastChange = "2022-02-22 16:04:17 +0000";
layers = (
{
layerId = m01;
shapes = (
{
closed = 1;
nodes = (
(148,-4,o),
(200,50,o),
(237,97,cs),
(290,163,o),
(338,240,o),
(361,292,cs),
(365,301,l),
(320,301,l),
(292,254,o),
(259,205,o),
(204,136,cs),
(157,77,o),
(120,47,o),
(105,47,cs),
(87,47,o),
(87,62,o),
(87,78,cs),
(87,116,o),
(105,206,o),
(131,245,cs),
(161,290,o),
(212,300,o),
(246,300,cs),
(253,300,o),
(321,300,o),
(329,300,c),
(340,300,l),
(340,302,o),
(340,347,o),
(340,350,c),
(328,350,o),
(266,350,o),
(246,350,cs),
(189,350,o),
(130,333,o),
(92,276,cs),
(60,228,o),
(37,131,o),
(37,73,cs),
(37,22,o),
(57,-4,o),
(90,-4,cs)
);
},
{
closed = 1;
nodes = (
(251,-301,o),
(267,-298,o),
(272,-289,cs),
(302,-235,o),
(341,-185,o),
(379,-147,cs),
(383,-143,o),
(386,-136,o),
(385,-128,cs),
(383,-116,o),
(377,-107,o),
(366,-104,cs),
(360,-102,o),
(351,-104,o),
(347,-108,cs),
(318,-137,o),
(304,-154,o),
(296,-164,c),
(383,327,ls),
(384,335,o),
(383,350,o),
(361,350,cs),
(336,350,l),
(225,-273,ls),
(222,-287,o),
(232,-299,o),
(243,-300,cs)
);
}
);
width = 430;
}
);
metricLeft = o;
unicode = 113;
},
{
glyphname = r;
lastChange = "2022-02-22 16:20:39 +0000";
layers = (
{
layerId = m01;
shapes = (
{
closed = 1;
nodes = (
(131,163,o),
(153,194,o),
(190,238,cs),
(200,249,o),
(224,275,o),
(247,290,cs),
(258,298,o),
(268,301,o),
(275,301,cs),
(282,301,o),
(285,296,o),
(290,269,cs),
(293,252,o),
(301,241,o),
(321,241,cs),
(340,241,o),
(343,256,o),
(341,269,cs,{
name = "💚";
}),
(335,314,o),
(329,329,o),
(317,338,cs),
(308,345,o),
(297,350,o),
(284,350,cs),
(263,350,o),
(243,348,o),
(224,336,cs),
(204,323,o),
(178,300,o),
(154,275,cs),
(135,254,o),
(117,233,o),
(108,216,c),
(86,91,l)
);
},
{
closed = 1;
nodes = (
(76,0,o),
(78,18,o),
(79,23,cs),
(132,323,ls),
(133,330,o),
(135,350,o),
(114,350,c),
(87,350,o),
(83,333,o),
(81,323,cs),
(28,23,ls),
(27,15,o),
(28,0,o),
(50,0,cs)
);
}
);
width = 347;
}
);
metricLeft = n;
unicode = 114;
},
{
glyphname = s;
lastChange = "2022-02-22 16:04:17 +0000";
layers = (
{
layerId = m01;
shapes = (
{
closed = 1;
nodes = (
(159,0,o),
(185,3,o),
(208,12,cs),
(237,24,o),
(258,46,o),
(263,82,cs),
(269,117,o),
(254,143,o),
(226,168,cs),
(218,175,o),
(177,200,o),
(147,224,cs),
(130,238,o),
(116,251,o),
(116,260,cs),
(116,269,o),
(122,278,o),
(132,285,cs),
(144,294,o),
(163,300,o),
(183,300,cs),
(278,300,ls),
(291,300,o),
(306,308,o),
(306,325,cs),
(306,349,o),
(291,350,o),
(263,350,c),
(183,350,ls),
(152,350,o),
(123,341,o),
(101,325,cs),
(80,309,o),
(67,287,o),
(66,260,cs),
(65,224,o),
(91,202,o),
(119,182,cs),
(146,163,o),
(179,143,o),
(189,135,cs),
(206,121,o),
(216,107,o),
(214,90,cs),
(211,73,o),
(201,63,o),
(187,57,cs),
(172,51,o),
(151,50,o),
(131,50,c),
(56,50,l),
(40,50,o),
(25,45,o),
(25,25,cs),
(25,6,o),
(40,0,o),
(55,0,c),
(131,0,l)
);
}
);
width = 332;
}
);
metricLeft = o;
metricRight = o;
unicode = 115;
},
{
glyphname = t;
lastChange = "2022-02-22 16:21:18 +0000";
layers = (
{
layerId = m01;
shapes = (
{
closed = 1;
nodes = (
(143,0,o),
(151,11,o),
(153,23,c),
(244,546,l),
(245,553,o),
(240,568,o),
(218,568,cs),
(205,568,o),
(196,558,o),
(194,547,c),
(101,24,l),
(99,12,o),
(108,0,o),
(126,0,cs)
);
},
{
closed = 1;
nodes = (
(298,305,ls),
(318,305,o),
(324,316,o),
(324,328,cs),
(324,340,o),
(318,350,o),
(298,350,cs),
(74,350,ls),
(54,350,o),
(48,340,o),
(48,328,cs),
(48,316,o),
(54,305,o),
(74,305,cs)
);
}
);
width = 313;
}
);
unicode = 116;
},
{
glyphname = u;
lastChange = "2022-02-22 08:59:19 +0000";
layers = (
{
layerId = m01;
shapes = (
{
closed = 1;
nodes = (
(85,350,o),
(83,332,o),
(82,327,cs),
(45,116,ls),
(35,59,o),
(42,-4,o),
(97,-4,cs),
(189,-4,o),
(279,147,o),
(337,234,c),
(344,339,l),
(275,224,o),
(161,45,o),
(106,45,cs),
(85,45,o),
(91,89,o),
(96,116,cs),
(133,327,ls),
(134,335,o),
(133,350,o),
(111,350,c)
);
},
{
closed = 1;
nodes = (
(332,0,o),
(334,18,o),
(335,23,cs),
(388,323,ls),
(389,330,o),
(389,338,o),
(387,342,cs),
(384,347,o),
(378,350,o),
(370,350,c),
(360,350,o),
(353,348,o),
(348,344,cs),
(343,340,o),
(339,333,o),
(337,323,cs),
(284,23,ls),
(283,15,o),
(284,0,o),
(306,0,cs)
);
}
);
width = 417;
}
);
metricLeft = n;
metricRight = n;
unicode = 117;
},
{
glyphname = v;
lastChange = "2022-02-22 08:59:19 +0000";
layers = (
{
layerId = m01;
shapes = (
{
closed = 1;
nodes = (
(114,-4,o),
(140,7,o),
(165,25,cs),
(203,53,o),
(243,100,o),
(278,150,cs),
(311,198,o),
(339,247,o),
(356,284,c),
(372,274,o),
(405,259,o),
(420,259,cs),
(429,259,o),
(436,263,o),
(440,270,cs),
(444,277,o),
(445,286,o),
(440,295,cs),
(437,302,o),
(427,307,o),
(417,312,cs),
(404,319,o),
(379,331,o),
(370,342,cs),
(363,350,o),
(358,350,o),
(351,350,cs),
(341,350,o),
(330,343,o),
(326,334,cs,{
name = "💚";
}),
(304,290,o),
(272,233,o),
(237,181,cs),
(205,133,o),
(170,89,o),
(136,63,cs),
(122,52,o),
(111,47,o),
(105,47,cs),
(94,47,o),
(89,52,o),
(88,59,cs),
(86,70,o),
(90,86,o),
(93,102,cs),
(132,323,ls),
(133,330,o),
(133,338,o),
(131,342,cs),
(128,347,o),
(122,350,o),
(114,350,cs),
(104,350,o),
(97,348,o),
(92,344,cs),
(87,340,o),
(83,333,o),
(81,323,cs),
(42,102,ls),
(37,76,o),
(36,49,o),
(43,28,cs),
(50,9,o),
(64,-4,o),
(90,-4,cs)
);
}
);
width = 425;
}
);
metricLeft = n;
unicode = 118;
},
{
glyphname = w;
lastChange = "2022-02-22 08:59:19 +0000";
layers = (
{
layerId = m01;
shapes = (
{
closed = 1;
nodes = (
(114,-4,o),
(140,7,o),
(165,25,cs),
(203,53,o),
(243,100,o),
(278,150,cs),
(311,198,o),
(339,247,o),
(356,284,c),
(326,334,l,{
name = "💚";
}),
(304,290,o),
(272,233,o),
(237,181,cs),
(205,133,o),
(170,89,o),
(136,63,cs),
(122,52,o),
(111,47,o),
(105,47,cs),
(94,47,o),
(89,52,o),
(88,59,cs),
(86,70,o),
(90,87,o),
(93,103,cs),
(132,323,ls),
(133,330,o),
(133,338,o),
(131,342,cs),
(128,347,o),
(122,350,o),
(114,350,cs),
(104,350,o),
(97,348,o),
(92,344,cs),
(87,340,o),
(83,333,o),
(81,323,cs),
(42,103,ls),
(37,77,o),
(36,49,o),
(43,28,cs),
(50,9,o),
(64,-4,o),
(90,-4,cs)
);
},
{
closed = 1;
nodes = (
(546,290,o),
(514,233,o),
(479,181,cs),
(447,133,o),
(412,89,o),
(378,63,cs),
(364,52,o),
(353,47,o),
(347,47,cs),
(336,47,o),
(331,52,o),
(330,59,cs),
(328,70,o),
(332,87,o),
(335,103,cs),
(374,323,ls),
(375,330,o),
(375,338,o),
(373,342,cs),
(370,347,o),
(364,350,o),
(356,350,cs),
(346,350,o),
(339,348,o),
(334,344,cs),
(329,340,o),
(325,333,o),
(323,323,cs),
(284,103,ls),
(279,77,o),
(278,49,o),
(285,28,cs),
(292,9,o),
(306,-4,o),
(332,-4,cs),
(356,-4,o),
(382,7,o),
(407,25,cs),
(445,53,o),
(485,100,o),
(520,150,cs),
(553,198,o),
(581,247,o),
(598,284,c),
(614,274,o),
(647,259,o),
(662,259,cs),
(671,259,o),
(678,263,o),
(682,270,cs),
(686,277,o),
(687,286,o),
(682,295,cs),
(679,302,o),
(669,307,o),
(659,312,cs),
(646,319,o),
(621,331,o),
(612,342,cs),
(605,350,o),
(600,350,o),
(593,350,cs),
(583,350,o),
(572,343,o),
(568,334,cs,{
name = "💚";
})
);
}
);
width = 667;
}
);
metricLeft = n;
unicode = 119;
},
{
glyphname = x;
lastChange = "2022-02-22 08:59:19 +0000";
layers = (
{
layerId = m01;
shapes = (
{
closed = 1;
nodes = (
(61,0,o),
(69,5,o),
(74,10,c),
(380,308,l),
(385,313,o),
(389,317,o),
(389,327,cs),
(389,333,o),
(387,339,o),
(382,344,cs),
(377,349,o),
(370,350,o),
(363,350,cs),
(356,349,o),
(349,346,o),
(344,341,c),
(37,44,l),
(30,36,o),
(28,28,o),
(29,21,cs),
(30,16,o),
(33,11,o),
(37,6,cs),
(41,2,o),
(46,0,o),
(53,0,cs)
);
},
{
closed = 1;
nodes = (
(314,-1,o),
(322,3,o),
(327,8,cs),
(332,13,o),
(336,20,o),
(336,27,cs),
(336,33,o),
(334,39,o),
(330,44,c),
(128,338,l),
(123,345,o),
(117,350,o),
(109,350,cs),
(102,350,o),
(96,347,o),
(91,343,cs),
(86,339,o),
(83,333,o),
(82,327,cs),
(82,321,o),
(85,314,o),
(88,309,c),
(292,10,l),
(296,4,o),
(302,1,o),
(307,0,cs)
);
}
);
width = 418;
}
);
metricLeft = n;
metricRight = n;
unicode = 120;
},
{
glyphname = y;
lastChange = "2022-02-22 16:22:56 +0000";
layers = (
{
layerId = m01;
shapes = (
{
closed = 1;
nodes = (
(85,350,o),
(83,333,o),
(82,328,cs),
(45,118,ls),
(35,61,o),
(42,-4,o),
(97,-4,cs),
(189,-4,o),
(279,147,o),
(337,234,c),
(341,339,l),
(272,224,o),
(161,45,o),
(106,45,cs),
(85,45,o),
(91,91,o),
(96,118,cs),
(133,328,ls),
(134,336,o),
(133,350,o),
(111,350,c)
);
},
{
closed = 1;
nodes = (
(32,-300,o),
(120,-295,o),
(139,-292,cs),
(212,-281,o),
(252,-250,o),
(277,-204,cs),
(306,-151,o),
(315,-79,o),
(329,0,c),
(387,328,l),
(389,340,o),
(379,350,o),
(362,350,c),
(347,350,o),
(339,343,o),
(335,323,c),
(278,0,l),
(267,-63,o),
(259,-131,o),
(232,-180,cs),
(214,-212,o),
(186,-236,o),
(143,-241,cs),
(116,-244,o),
(25,-250,o),
(1,-250,cs),
(-11,-250,o),
(-24,-261,o),
(-24,-275,cs),
(-24,-290,o),
(-11,-300,o),
(1,-300,cs)
);
}
);
width = 415;
}
);
metricLeft = n;
metricRight = n;
unicode = 121;
},
{
glyphname = z;
lastChange = "2022-02-22 08:59:19 +0000";
layers = (
{
layerId = m01;
shapes = (
{
closed = 1;
nodes = (
(61,0,o),
(69,5,o),
(74,10,c),
(380,308,l),
(385,313,o),
(389,317,o),
(389,327,cs),
(389,333,o),
(387,339,o),
(382,344,cs),
(377,349,o),
(370,350,o),
(363,350,cs),
(356,349,o),
(349,346,o),
(344,341,c),
(37,44,l),
(30,36,o),
(28,28,o),
(29,21,cs),
(30,16,o),
(33,11,o),
(37,6,cs),
(41,2,o),
(46,0,o),
(53,0,cs)
);
},
{
closed = 1;
nodes = (
(358,300,ls),
(378,300,o),
(384,313,o),
(384,325,cs),
(384,337,o),
(378,350,o),
(358,350,cs),
(108,350,ls),
(88,350,o),
(82,337,o),
(82,325,cs),
(82,313,o),
(88,300,o),
(108,300,cs)
);
},
{
closed = 1;
nodes = (
(310,0,ls),
(330,0,o),
(336,13,o),
(336,25,cs),
(336,37,o),
(330,50,o),
(310,50,cs),
(59,50,ls),
(39,50,o),
(33,37,o),
(33,25,cs),
(33,13,o),
(39,0,o),
(59,0,cs)
);
}
);
width = 418;
}
);
metricLeft = n;
metricRight = n;
unicode = 122;
},
{
glyphname = zero;
lastChange = "2022-02-22 13:46:34 +0000";
layers = (
{
layerId = m01;
shapes = (
{
closed = 1;
nodes = (
(282,1,o),
(457,212,o),
(457,394,cs),
(457,482,o),
(426,568,o),
(319,568,cs),
(131,568,o),
(56,282,o),
(56,156,cs),
(56,60,o),
(107,1,o),
(181,1,cs,{
name = "❌";
})
);
},
{
closed = 1;
nodes = (
(134,51,o),
(108,84,o),
(108,156,cs),
(108,279,o),
(187,517,o),
(319,517,cs),
(389,517,o),
(405,463,o),
(405,394,cs),
(405,212,o),
(230,51,o),
(181,51,cs)
);
}
);
width = 461;
}
);
metricLeft = O;
metricRight = O;
unicode = 48;
},
{
glyphname = one;
lastChange = "2022-02-22 17:25:29 +0000";
layers = (
{
layerId = m01;
shapes = (
{
closed = 1;
nodes = (
(71,0,o),
(77,10,o),
(79,22,cs),
(172,549,ls),
(173,556,o),
(166,568,o),
(146,568,cs),
(135,568,o),
(123,560,o),
(121,549,cs),
(28,22,ls),
(26,10,o),
(36,0,o),
(54,0,cs)
);
}
);
width = 161;
}
);
metricLeft = N;
metricRight = N;
unicode = 49;
},
{
glyphname = two;
lastChange = "2022-02-22 16:51:59 +0000";
layers = (
{
layerId = m01;
shapes = (
{
closed = 1;
nodes = (
(123,49,l),
(212,123,o),
(372,244,o),
(418,321,cs),
(468,404,o),
(465,511,o),
(386,559,cs),
(326,596,o),
(197,558,o),
(128,501,cs),
(112,487,o),
(104,473,o),
(109,461,cs),
(114,450,o),
(135,441,o),
(156,459,cs),
(222,514,o),
(328,537,o),
(364,514,cs),
(415,481,o),
(410,403,o),
(371,340,cs),
(334,281,o),
(179,159,o),
(37,43,cs),
(32,39,o),
(29,33,o),
(29,21,cs),
(29,-4,o),
(41,0,o),
(52,0,cs),
(61,0,ls),
(65,0,o),
(69,0,o),
(73,0,c)
);
},
{
closed = 1;
nodes = (
(356,0,ls),
(376,0,o),
(382,13,o),
(382,25,cs),
(382,37,o),
(376,50,o),
(356,50,cs),
(54,50,l),
(54,0,l)
);
}
);
width = 447;
}
);
metricLeft = N;
metricRight = O;
unicode = 50;
},
{
glyphname = three;
lastChange = "2022-02-22 16:46:27 +0000";
layers = (
{
layerId = m01;
shapes = (
{
closed = 1;
nodes = (
(105,499,o),
(110,482,o),
(115,474,cs),
(121,464,o),
(137,459,o),
(150,468,cs),
(254,538,o),
(347,533,o),
(347,499,cs),
(347,466,o),
(212,368,o),
(128,316,cs),
(111,305,o),
(114,288,o),
(118,280,cs),
(123,270,o),
(141,263,o),
(156,273,cs),
(279,355,o),
(398,437,o),
(397,499,cs),
(396,577,o),
(264,603,o),
(130,515,cs)
);
},
{
closed = 1;
nodes = (
(58,82,o),
(44,70,o),
(39,63,cs),
(34,56,o),
(29,43,o),
(47,28,cs),
(160,-64,o),
(399,60,o),
(400,225,cs),
(401,336,o),
(297,393,o),
(142,324,c),
(158,275,l),
(307,342,o),
(350,285,o),
(350,225,cs),
(350,98,o),
(160,4,o),
(76,68,cs)
);
}
);
width = 432;
}
);
metricLeft = N;
metricRight = O;
unicode = 51;
},
{
glyphname = four;
lastChange = "2022-02-22 17:23:45 +0000";
layers = (
{
layerId = m01;
shapes = (
{
closed = 1;
nodes = (
(94,135,o),
(101,148,o),
(103,160,cs),
(171,540,ls),
(174,558,o),
(162,568,o),
(150,568,cs),
(138,568,o),
(124,562,o),
(121,544,cs),
(52,159,ls),
(50,147,o),
(59,135,o),
(77,135,cs)
);
},
{
closed = 1;
nodes = (
(377,135,ls),
(393,135,o),
(403,146,o),
(403,158,cs),
(403,170,o),
(393,180,o),
(377,180,cs),
(78,180,l),
(78,135,l)
);
},
{
closed = 1;
nodes = (
(186,31,ls),
(182,11,o),
(193,1,o),
(206,0,cs),
(218,-1,o),
(232,6,o),
(236,26,cs),
(283,282,ls),
(286,299,o),
(275,309,o),
(263,311,cs),
(250,313,o),
(236,306,o),
(233,289,cs)
);
}
);
width = 406;
}
);
metricLeft = N;
unicode = 52;
},
{
glyphname = five;
lastChange = "2022-02-22 17:26:23 +0000";
layers = (
{
layerId = m01;
shapes = (
{
closed = 1;
nodes = (
(62,85,o),
(47,75,o),
(41,68,cs),
(35,61,o),
(27,48,o),
(43,33,cs),
(139,-59,o),
(332,35,o),
(362,200,cs),
(380,301,o),
(264,395,o),
(99,337,c),
(107,288,l),
(265,337,o),
(320,267,o),
(311,200,cs),
(296,87,o),
(146,4,o),
(77,70,cs)
);
},
{
closed = 1;
nodes = (
(397,523,ls),
(417,523,o),
(423,533,o),
(423,545,cs),
(423,557,o),
(417,568,o),
(397,568,cs),
(154,568,l),
(154,523,l)
);
},
{
closed = 1;
nodes = (
(127,287,o),
(129,305,o),
(130,310,cs),
(171,541,ls),
(172,548,o),
(172,556,o),
(170,560,cs),
(167,565,o),
(161,568,o),
(153,568,c),
(143,568,o),
(136,566,o),
(131,562,cs),
(126,558,o),
(122,551,o),
(120,541,cs),
(79,310,ls),
(78,302,o),
(79,287,o),
(101,287,cs)
);
}
);
width = 413;
}
);
metricLeft = N;
metricRight = N;
unicode = 53;
},
{
glyphname = six;
lastChange = "2022-02-22 17:26:44 +0000";
layers = (
{
layerId = m01;
shapes = (
{
closed = 1;
nodes = (
(263,0,o),
(371,149,o),
(371,249,cs),
(371,321,o),
(333,353,o),
(261,353,cs),
(174,353,o),
(113,306,o),
(78,244,c),
(45,114,l),
(45,47,o),
(103,0,o),
(158,0,cs)
);
},
{
closed = 1;
nodes = (
(126,50,o),
(95,78,o),
(95,114,cs),
(95,215,o),
(156,303,o),
(260,303,cs),
(300,303,o),
(321,289,o),
(321,249,cs),
(321,173,o),
(229,50,o),
(164,50,cs)
);
},
{
closed = 1;
nodes = (
(94,113,l),
(95,209,o),
(128,288,o),
(198,387,cs),
(225,425,o),
(269,468,o),
(344,520,cs),
(359,531,o),
(365,550,o),
(358,560,cs),
(352,570,o),
(334,572,o),
(302,551,cs),
(232,504,o),
(180,449,o),
(154,412,cs),
(86,316,o),
(46,213,o),
(45,113,c)
);
}
);
width = 412;
}
);
metricLeft = o;
metricRight = o;
unicode = 54;
},
{
glyphname = seven;
lastChange = "2022-02-22 17:28:09 +0000";
layers = (
{
layerId = m01;
shapes = (
{
closed = 1;
nodes = (
(264,0,o),
(269,10,o),
(271,22,cs),
(364,549,ls),
(365,556,o),
(359,568,o),
(339,568,cs),
(328,568,o),
(316,560,o),
(314,549,cs),
(221,22,ls),
(219,10,o),
(229,0,o),
(247,0,cs)
);
},
{
closed = 1;
nodes = (
(340,523,l),
(340,568,l),
(92,568,ls),
(72,568,o),
(66,557,o),
(66,545,cs),
(66,533,o),
(72,523,o),
(92,523,cs)
);
}
);
width = 353;
}
);
metricRight = N;
unicode = 55;
},
{
glyphname = eight;
lastChange = "2022-02-22 17:29:22 +0000";
layers = (
{
layerId = m01;
shapes = (
{
closed = 1;
nodes = (
(287,-4,o),
(338,97,o),
(335,161,cs,{
name = "💚";
}),
(332,215,o),
(285,269,o),
(245,307,cs),
(226,325,l,{
name = "❌";
}),
(164,325,l),
(103,280,o),
(63,227,o),
(51,161,cs),
(40,103,o),
(64,-4,o),
(163,-4,cs)
);
},
{
closed = 1;
nodes = (
(126,45,o),
(89,103,o),
(100,161,cs),
(108,205,o),
(145,249,o),
(196,285,c),
(208,273,ls),
(241,240,o),
(279,199,o),
(284,150,cs),
(288,109,o),
(241,45,o),
(165,45,cs)
);
},
{
closed = 1;
nodes = (
(320,373,o),
(409,442,o),
(392,503,cs),
(376,557,o),
(293,568,o),
(268,568,cs),
(188,568,o),
(101,529,o),
(101,428,cs),
(101,386,o),
(138,350,o),
(164,323,c),
(207,349,l),
(184,371,o),
(152,405,o),
(152,428,cs),
(152,504,o),
(210,518,o),
(268,518,cs),
(299,518,o),
(341,506,o),
(347,490,cs),
(355,468,o),
(241,371,o),
(163,322,c),
(232,312,l)
);
}
);
width = 379;
}
);
metricLeft = O;
metricRight = O;
unicode = 56;
},
{
glyphname = nine;
lastChange = "2022-02-22 13:48:36 +0000";
layers = (
{
layerId = m01;
shapes = (
{
closed = 1;
nodes = (
(369,568,o),
(307,568,o),
(287,568,cs),
(230,568,o),
(171,551,o),
(133,494,cs),
(101,446,o),
(78,349,o),
(78,291,cs),
(78,240,o),
(98,214,o),
(131,214,cs),
(189,214,o),
(241,268,o),
(278,315,cs),
(331,381,o),
(379,458,o),
(402,510,cs),
(406,519,l),
(361,519,l),
(333,472,o),
(300,423,o),
(245,354,cs),
(198,295,o),
(161,265,o),
(146,265,cs),
(128,265,o),
(128,280,o),
(128,296,cs),
(128,334,o),
(146,424,o),
(172,463,cs),
(202,508,o),
(253,518,o),
(287,518,cs),
(294,518,o),
(362,518,o),
(370,518,c),
(381,518,l),
(381,520,o),
(381,565,o),
(381,568,c)
);
},
{
closed = 1;
nodes = (
(361,568,l),
(361,479,l),
(283,22,ls),
(282,14,o),
(282,0,o),
(304,0,cs),
(330,0,o),
(332,17,o),
(333,22,cs),
(425,546,l),
(427,558,o),
(421,568,o),
(409,568,c)
);
}
);
width = 415;
}
);
metricLeft = O;
metricRight = N;
unicode = 57;
},
{
glyphname = period;
lastChange = "2022-02-22 08:34:51 +0000";
layers = (
{
layerId = m01;
shapes = (
{
closed = 1;
nodes = (
(83,-30,o),
(101,-12,o),
(101,7,cs),
(101,29,o),
(83,46,o),
(62,46,cs),
(42,46,o),
(26,28,o),
(26,7,cs),
(26,-11,o),
(42,-30,o),
(62,-30,cs)
);
}
);
width = 186;
}
);
metricLeft = n;
metricRight = n;
unicode = 46;
},
{
glyphname = comma;
lastChange = "2022-02-22 08:34:51 +0000";
layers = (
{
layerId = m01;
shapes = (
{
closed = 1;
nodes = (
(12,-71,ls),
(9,-91,o),
(21,-98,o),
(33,-101,cs),
(45,-103,o),
(57,-98,o),
(61,-78,cs),
(79,21,ls),
(83,41,o),
(71,48,o),
(59,50,cs),
(48,52,o),
(32,48,o),
(29,28,cs)
);
}
);
width = 161;
}
);
metricLeft = n;
metricRight = n;
unicode = 44;
},
{
glyphname = colon;
lastChange = "2022-02-22 09:53:01 +0000";
layers = (
{
layerId = m01;
shapes = (
{
closed = 1;
nodes = (
(119,175,o),
(137,193,o),
(137,212,cs),
(137,234,o),
(119,251,o),
(98,251,cs),
(78,251,o),
(62,233,o),
(62,212,cs),
(62,194,o),
(78,175,o),
(98,175,cs)
);
},
{
closed = 1;
nodes = (
(84,-30,o),
(102,-12,o),
(102,7,cs),
(102,29,o),
(84,46,o),
(62,46,cs),
(42,46,o),
(26,28,o),
(26,7,cs),
(26,-11,o),
(42,-30,o),
(62,-30,cs)
);
}
);
width = 187;
}
);
metricLeft = n;
metricRight = n;
unicode = 58;
},
{
glyphname = semicolon;
lastChange = "2022-02-22 09:49:50 +0000";
layers = (
{
layerId = m01;
shapes = (
{
closed = 1;
nodes = (
(25,-71,ls),
(22,-91,o),
(34,-98,o),
(46,-101,cs),
(58,-103,o),
(70,-98,o),
(74,-78,cs),
(92,21,ls),
(96,41,o),
(84,48,o),
(72,50,cs),
(61,52,o),
(45,48,o),
(42,28,cs)
);
},
{
closed = 1;
nodes = (
(119,175,o),
(137,193,o),
(137,212,cs),
(137,234,o),
(119,251,o),
(98,251,cs),
(78,251,o),
(62,233,o),
(62,212,cs),
(62,194,o),
(78,175,o),
(98,175,cs)
);
}
);
width = 186;
}
);
metricLeft = n;
metricRight = n;
unicode = 59;
},
{
glyphname = ellipsis;
lastChange = "2022-02-22 09:56:51 +0000";
layers = (
{
layerId = m01;
shapes = (
{
ref = period;
},
{
ref = period;
},
{
closed = 1;
nodes = (
(83,-30,o),
(101,-12,o),
(101,7,cs),
(101,29,o),
(83,46,o),
(62,46,cs),
(42,46,o),
(26,28,o),
(26,7,cs),
(26,-11,o),
(42,-30,o),
(62,-30,cs)
);
},
{
closed = 1;
nodes = (
(193,-30,o),
(211,-12,o),
(211,7,cs),
(211,29,o),
(193,46,o),
(172,46,cs),
(152,46,o),
(136,28,o),
(136,7,cs),
(136,-11,o),
(152,-30,o),
(172,-30,cs)
);
},
{
closed = 1;
nodes = (
(303,-30,o),
(321,-12,o),
(321,7,cs),
(321,29,o),
(303,46,o),
(282,46,cs),
(262,46,o),
(246,28,o),
(246,7,cs),
(246,-11,o),
(262,-30,o),
(282,-30,cs)
);
}
);
width = 406;
}
);
metricLeft = n;
metricRight = n;
unicode = 8230;
},
{
glyphname = exclam;
lastChange = "2022-02-22 12:42:23 +0000";
layers = (
{
layerId = m01;
shapes = (
{
closed = 1;
nodes = (
(106,153,o),
(111,163,o),
(113,175,c),
(193,631,l),
(194,638,o),
(188,650,o),
(168,650,cs),
(157,650,o),
(145,642,o),
(143,631,c),
(63,175,l),
(61,163,o),
(71,153,o),
(89,153,cs)
);
},
{
closed = 1;
nodes = (
(75,-25,o),
(91,-9,o),
(91,7,cs),
(91,26,o),
(75,41,o),
(57,41,cs),
(39,41,o),
(26,25,o),
(26,7,cs),
(26,-8,o),
(39,-25,o),
(57,-25,cs)
);
}
);
width = 176;
}
);
metricLeft = N;
metricRight = N;
unicode = 33;
},
{
glyphname = exclamdown;
lastChange = "2022-02-22 12:41:39 +0000";
layers = (
{
layerId = m01;
shapes = (
{
closed = 1;
nodes = (
(117,467,o),
(112,457,o),
(110,445,c),
(30,-11,l),
(29,-18,o),
(35,-30,o),
(55,-30,cs),
(66,-30,o),
(78,-22,o),
(80,-11,c),
(160,445,l),
(162,457,o),
(152,467,o),
(134,467,cs)
);
},
{
closed = 1;
nodes = (
(148,645,o),
(133,629,o),
(133,613,cs),
(133,594,o),
(148,580,o),
(167,580,cs),
(184,580,o),
(198,595,o),
(198,613,cs),
(198,628,o),
(184,645,o),
(167,645,cs)
);
}
);
width = 176;
}
);
metricLeft = N;
metricRight = N;
unicode = 161;
},
{
glyphname = question;
lastChange = "2022-02-22 10:59:04 +0000";
layers = (
{
layerId = m01;
shapes = (
{
closed = 1;
nodes = (
(209,-24,o),
(225,-9,o),
(225,7,cs),
(225,26,o),
(210,41,o),
(191,41,cs),
(174,41,o),
(160,25,o),
(160,7,cs),
(160,-8,o),
(174,-24,o),
(191,-24,cs)
);
},
{
closed = 1;
nodes = (
(241,272,l),
(360,286,o),
(445,349,o),
(480,487,cs),
(518,625,o),
(454,700,o),
(331,700,cs),
(231,700,o),
(151,633,o),
(115,522,cs),
(111,510,o),
(112,493,o),
(130,493,cs),
(151,493,o),
(161,509,o),
(166,522,cs),
(186,588,o),
(239,650,o),
(330,650,cs),
(419,650,o),
(460,593,o),
(430,486,cs),
(397,365,o),
(318,329,o),
(246,322,c)
);
},
{
closed = 1;
nodes = (
(240,158,o),
(246,168,o),
(248,180,c),
(270,303,l),
(271,310,o),
(264,322,o),
(244,322,cs),
(233,322,o),
(221,314,o),
(219,303,c),
(197,180,l),
(195,168,o),
(205,158,o),
(223,158,cs)
);
}
);
width = 465;
}
);
metricLeft = O;
metricRight = O;
unicode = 63;
},
{
glyphname = questiondown;
lastChange = "2022-02-22 10:58:52 +0000";
layers = (
{
layerId = m01;
shapes = (
{
closed = 1;
nodes = (
(328,700,o),
(312,685,o),
(312,669,cs),
(312,650,o),
(327,635,o),
(346,635,cs),
(363,635,o),
(377,651,o),
(377,669,cs),
(377,684,o),
(363,700,o),
(346,700,cs)
);
},
{
closed = 1;
nodes = (
(296,404,l),
(177,390,o),
(92,327,o),
(57,189,cs),
(19,51,o),
(83,-24,o),
(206,-24,cs),
(306,-24,o),
(386,43,o),
(422,154,cs),
(426,166,o),
(425,183,o),
(407,183,cs),
(386,183,o),
(376,167,o),
(371,154,cs),
(351,88,o),
(298,26,o),
(207,26,cs),
(118,26,o),
(77,83,o),
(107,190,cs),
(140,311,o),
(219,347,o),
(291,354,c)
);
},
{
closed = 1;
nodes = (
(297,518,o),
(291,508,o),
(289,496,c),
(267,373,l),
(266,366,o),
(273,354,o),
(293,354,cs),
(304,354,o),
(316,362,o),
(318,373,c),
(340,496,l),
(342,508,o),
(332,518,o),
(314,518,cs)
);
}
);
width = 464;
}
);
metricLeft = O;
metricRight = O;
unicode = 191;
},
{
glyphname = periodcentered;
lastChange = "2022-02-22 10:02:21 +0000";
layers = (
{
layerId = m01;
shapes = (
{
closed = 1;
nodes = (
(113,138,o),
(131,156,o),
(131,175,cs),
(131,197,o),
(113,214,o),
(92,214,cs),
(72,214,o),
(56,196,o),
(56,175,cs),
(56,157,o),
(72,138,o),
(92,138,cs)
);
}
);
width = 186;
}
);
metricLeft = n;
metricRight = n;
unicode = 183;
},
{
glyphname = bullet;
lastChange = "2022-02-22 10:07:15 +0000";
layers = (
{
layerId = m01;
shapes = (
{
closed = 1;
nodes = (
(201,278,o),
(237,314,o),
(237,351,cs),
(237,396,o),
(201,430,o),
(159,430,cs),
(119,430,o),
(87,394,o),
(87,351,cs),
(87,315,o),
(119,278,o),
(159,278,cs)
);
}
);
width = 262;
}
);
metricLeft = n;
metricRight = n;
unicode = 8226;
},
{
glyphname = asterisk;
lastChange = "2022-02-22 10:17:29 +0000";
layers = (
{
layerId = m01;
shapes = (
{
closed = 1;
nodes = (
(184,530,ls),
(180,510,o),
(188,504,o),
(200,504,cs),
(212,504,o),
(221,510,o),
(225,530,cs),
(251,678,ls),
(255,698,o),
(248,704,o),
(236,704,cs),
(224,704,o),
(214,698,o),
(210,678,cs)
);
},
{
closed = 1;
nodes = (
(256,545,ls),
(270,534,o),
(281,537,o),
(289,547,cs),
(298,557,o),
(298,567,o),
(285,578,cs),
(178,663,ls),
(164,674,o),
(154,671,o),
(146,662,cs),
(136,651,o),
(135,641,o),
(149,629,cs)
);
},
{
closed = 1;
nodes = (
(294,629,ls),
(312,640,o),
(314,652,o),
(309,662,cs),
(304,671,o),
(295,674,o),
(277,663,cs),
(141,579,ls),
(123,568,o),
(120,557,o),
(125,547,cs),
(130,538,o),
(139,533,o),
(159,545,cs)
);
}
);
width = 283;
}
);
metricLeft = n;
metricRight = n;
unicode = 42;
},
{
glyphname = numbersign;
lastChange = "2022-02-22 17:35:56 +0000";
layers = (
{
layerId = m01;
shapes = (
{
closed = 1;
nodes = (
(217,0,o),
(223,10,o),
(225,22,cs),
(318,549,ls),
(319,556,o),
(312,568,o),
(292,568,cs),
(281,568,o),
(269,560,o),
(267,549,cs),
(174,22,ls),
(172,10,o),
(182,0,o),
(200,0,cs)
);
},
{
closed = 1;
nodes = (
(473,0,o),
(478,10,o),
(480,22,cs),
(573,549,ls),
(574,556,o),
(568,568,o),
(548,568,cs),
(537,568,o),
(524,560,o),
(522,549,cs),
(429,22,ls),
(427,10,o),
(438,0,o),
(456,0,cs)
);
},
{
closed = 1;
nodes = (
(624,143,ls),
(644,143,o),
(650,157,o),
(650,169,cs),
(650,181,o),
(644,192,o),
(624,192,cs),
(80,192,ls),
(60,192,o),
(54,181,o),
(54,169,cs),
(54,157,o),
(60,143,o),
(80,143,cs)
);
},
{
closed = 1;
nodes = (
(666,384,ls),
(686,384,o),
(692,393,o),
(692,405,cs),
(692,417,o),
(686,425,o),
(666,425,cs),
(122,425,ls),
(102,425,o),
(96,417,o),
(96,405,cs),
(96,393,o),
(102,384,o),
(122,384,cs)
);
}
);
width = 707;
}
);
metricLeft = N;
metricRight = N;
unicode = 35;
},
{
glyphname = slash;
lastChange = "2022-02-22 10:29:26 +0000";
layers = (
{
layerId = m01;
shapes = (
{
closed = 1;
nodes = (
(-15,-176,o),
(-9,-162,o),
(-6,-153,c),
(292,666,l),
(298,683,o),
(299,696,o),
(279,700,cs),
(257,704,o),
(250,694,o),
(244,679,c),
(-55,-142,l),
(-60,-156,o),
(-54,-170,o),
(-37,-173,cs)
);
}
);
width = 207;
}
);
unicode = 47;
},
{
glyphname = backslash;
lastChange = "2022-02-22 10:29:51 +0000";
layers = (
{
layerId = m01;
shapes = (
{
closed = 1;
nodes = (
(92,697,o),
(86,683,o),
(91,669,c),
(390,-152,l),
(396,-167,o),
(403,-177,o),
(425,-173,cs),
(445,-169,o),
(444,-156,o),
(438,-139,c),
(140,680,l),
(137,689,o),
(131,703,o),
(109,700,cs)
);
}
);
width = 501;
}
);
unicode = 92;
},
{
glyphname = hyphen;
lastChange = "2022-02-22 11:46:57 +0000";
layers = (
{
layerId = m01;
shapes = (
{
closed = 1;
nodes = (
(233,175,ls),
(253,175,o),
(259,184,o),
(259,196,cs),
(259,208,o),
(253,216,o),
(233,216,cs),
(85,216,ls),
(65,216,o),
(59,208,o),
(59,196,cs),
(59,184,o),
(65,175,o),
(85,175,cs)
);
}
);
width = 311;
}
);
metricLeft = n;
metricRight = n;
unicode = 45;
},
{
glyphname = endash;
lastChange = "2022-02-22 11:47:29 +0000";
layers = (
{
layerId = m01;
shapes = (
{
closed = 1;
nodes = (
(312,175,ls),
(332,175,o),
(338,184,o),
(338,196,cs),
(338,208,o),
(332,216,o),
(312,216,cs),
(85,216,ls),
(65,216,o),
(59,208,o),
(59,196,cs),
(59,184,o),
(65,175,o),
(85,175,cs)
);
}
);
width = 390;
}
);
metricLeft = n;
metricRight = n;
unicode = 8211;
},
{
glyphname = underscore;
lastChange = "2022-02-22 11:02:53 +0000";
layers = (
{
layerId = m01;
shapes = (
{
closed = 1;
nodes = (
(330,-73,ls),
(350,-73,o),
(356,-64,o),
(356,-52,cs),
(356,-40,o),
(350,-32,o),
(330,-32,cs),
(41,-32,ls),
(21,-32,o),
(15,-40,o),
(15,-52,cs),
(15,-64,o),
(21,-73,o),
(41,-73,cs)
);
}
);
width = 452;
}
);
metricLeft = n;
metricRight = n;
unicode = 95;
},
{
glyphname = parenleft;
lastChange = "2022-02-22 17:31:05 +0000";
layers = (
{
layerId = m01;
shapes = (
{
closed = 1;
nodes = (
(188,-288,o),
(183,-277,o),
(173,-258,cs),
(57,-39,o),
(97,117,o),
(120,238,cs),
(141,346,o),
(218,528,o),
(344,655,cs),
(359,670,o),
(367,682,o),
(357,692,cs),
(344,705,o),
(327,696,o),
(311,681,cs),
(179,554,o),
(85,348,o),
(64,238,cs),
(41,116,o),
(16,-58,o),
(137,-280,cs),
(145,-295,o),
(159,-306,o),
(174,-297,cs)
);
}
);
width = 272;
}
);
metricLeft = O;
unicode = 40;
},
{
glyphname = parenright;
lastChange = "2022-02-22 17:31:15 +0000";
layers = (
{
layerId = m01;
shapes = (
{
closed = 1;
nodes = (
(93,686,o),
(98,675,o),
(108,656,cs),
(224,437,o),
(184,281,o),
(161,160,cs),
(140,52,o),
(63,-130,o),
(-63,-257,cs),
(-78,-272,o),
(-86,-284,o),
(-76,-294,cs),
(-63,-307,o),
(-46,-298,o),
(-30,-283,cs),
(102,-156,o),
(196,50,o),
(217,160,cs),
(240,282,o),
(265,456,o),
(144,678,cs),
(136,693,o),
(122,704,o),
(107,695,cs)
);
}
);
width = 258;
}
);
metricRight = O;
unicode = 41;
},
{
glyphname = braceleft;
lastChange = "2022-02-22 12:37:17 +0000";
layers = (
{
layerId = m01;
shapes = (
{
closed = 1;
nodes = (
(119,225,l),
(170,266,o),
(186,299,o),
(196,346,cs),
(208,401,o),
(189,518,o),
(214,580,cs),
(237,633,o),
(293,655,o),
(333,667,cs),
(349,672,o),
(354,682,o),
(349,693,cs),
(343,707,o),
(322,701,o),
(305,695,cs),
(269,681,o),
(198,652,o),
(174,597,cs),
(146,532,o),
(163,413,o),
(150,352,cs),
(142,322,o),
(127,296,o),
(96,271,cs),
(80,258,o),
(67,251,o),
(65,234,c)
);
},
{
closed = 1;
nodes = (
(65,234,l),
(64,215,o),
(73,205,o),
(83,188,cs),
(103,154,o),
(109,123,o),
(105,93,cs),
(97,32,o),
(41,-81,o),
(45,-151,cs),
(49,-211,o),
(92,-264,o),
(123,-292,cs),
(137,-305,o),
(151,-309,o),
(162,-298,cs),
(171,-289,o),
(161,-279,o),
(149,-269,cs),
(115,-241,o),
(92,-206,o),
(89,-149,cs),
(87,-82,o),
(144,27,o),
(151,84,cs),
(158,131,o),
(153,170,o),
(119,225,c)
);
}
);
width = 261;
}
);
metricLeft = N;
unicode = 123;
},
{
glyphname = braceright;
lastChange = "2022-02-22 12:38:03 +0000";
layers = (
{
layerId = m01;
shapes = (
{
closed = 1;
nodes = (
(150,172,l),
(99,131,o),
(83,98,o),
(73,51,cs),
(61,-4,o),
(80,-121,o),
(55,-183,cs),
(32,-236,o),
(-24,-258,o),
(-64,-270,cs),
(-80,-275,o),
(-85,-285,o),
(-80,-296,cs),
(-74,-310,o),
(-53,-304,o),
(-36,-298,cs),
(0,-284,o),
(71,-255,o),
(95,-200,cs),
(123,-135,o),
(106,-16,o),
(119,45,cs),
(127,75,o),
(142,101,o),
(173,126,cs),
(189,139,o),
(202,146,o),
(204,163,c)
);
},
{
closed = 1;
nodes = (
(204,163,l),
(205,182,o),
(196,192,o),
(186,209,cs),
(166,243,o),
(160,274,o),
(164,304,cs),
(172,365,o),
(228,478,o),
(224,548,cs),
(220,608,o),
(177,661,o),
(146,689,cs),
(132,702,o),
(118,706,o),
(107,695,cs),
(98,686,o),
(108,676,o),
(120,666,cs),
(154,638,o),
(177,603,o),
(180,546,cs),
(182,479,o),
(125,370,o),
(118,313,cs),
(111,266,o),
(116,227,o),
(150,172,c)
);
}
);
width = 261;
}
);
metricRight = N;
unicode = 125;
},
{
glyphname = bracketleft;
lastChange = "2022-02-22 17:31:32 +0000";
layers = (
{
layerId = m01;
shapes = (
{
closed = 1;
nodes = (
(21,-300,o),
(25,-285,o),
(27,-275,c),
(194,673,l),
(197,691,o),
(195,704,o),
(174,704,cs),
(152,704,o),
(147,693,o),
(144,677,c),
(-24,-273,l),
(-27,-288,o),
(-19,-300,o),
(-1,-300,cs)
);
},
{
closed = 1;
nodes = (
(312,663,ls),
(332,663,o),
(338,672,o),
(338,684,cs),
(338,696,o),
(332,704,o),
(312,704,cs),
(179,704,ls),
(159,704,o),
(153,696,o),
(153,684,cs),
(153,672,o),
(159,663,o),
(179,663,cs)
);
},
{
closed = 1;
nodes = (
(137,-300,ls),
(157,-300,o),
(163,-291,o),
(163,-278,cs),
(163,-266,o),
(157,-258,o),
(137,-258,cs),
(4,-258,ls),
(-16,-258,o),
(-22,-266,o),
(-22,-278,cs),
(-22,-291,o),
(-16,-300,o),
(4,-300,cs)
);
}
);
width = 249;
}
);
metricLeft = N;
unicode = 91;
},
{
glyphname = bracketright;
lastChange = "2022-02-22 17:31:43 +0000";
layers = (
{
layerId = m01;
shapes = (
{
closed = 1;
nodes = (
(237,704,o),
(233,689,o),
(231,679,c),
(64,-269,l),
(61,-287,o),
(63,-300,o),
(84,-300,cs),
(106,-300,o),
(111,-289,o),
(114,-273,c),
(282,677,l),
(285,692,o),
(277,704,o),
(259,704,cs)
);
},
{
closed = 1;
nodes = (
(-54,-259,ls),
(-74,-259,o),
(-80,-268,o),
(-80,-280,cs),
(-80,-292,o),
(-74,-300,o),
(-54,-300,cs),
(79,-300,ls),
(99,-300,o),
(105,-292,o),
(105,-280,cs),
(105,-268,o),
(99,-259,o),
(79,-259,cs)
);
},
{
closed = 1;
nodes = (
(121,704,ls),
(101,704,o),
(95,695,o),
(95,682,cs),
(95,670,o),
(101,662,o),
(121,662,cs),
(254,662,ls),
(274,662,o),
(280,670,o),
(280,682,cs),
(280,695,o),
(274,704,o),
(254,704,cs)
);
}
);
width = 248;
}
);
metricRight = N;
unicode = 93;
},
{
glyphname = quotedbl;
lastChange = "2022-02-22 13:11:37 +0000";
layers = (
{
layerId = m01;
shapes = (
{
closed = 1;
nodes = (
(127,578,ls),
(124,558,o),
(136,551,o),
(148,548,cs),
(160,546,o),
(172,551,o),
(176,571,cs),
(194,670,ls),
(198,690,o),
(186,697,o),
(174,699,cs),
(163,701,o),
(147,697,o),
(144,677,cs)
);
},
{
closed = 1;
nodes = (
(235,578,ls),
(232,558,o),
(244,551,o),
(256,548,cs),
(268,546,o),
(280,551,o),
(284,571,cs),
(302,670,ls),
(306,690,o),
(294,697,o),
(282,699,cs),
(271,701,o),
(255,697,o),
(252,677,cs)
);
}
);
width = 215;
}
);
metricLeft = N;
unicode = 34;
},
{
glyphname = quotesingle;
lastChange = "2022-02-22 12:50:34 +0000";
layers = (
{
layerId = m01;
shapes = (
{
closed = 1;
nodes = (
(127,578,ls),
(124,558,o),
(136,551,o),
(148,548,cs),
(160,546,o),
(172,551,o),
(176,571,cs),
(194,670,ls),
(198,690,o),
(186,697,o),
(174,699,cs),
(163,701,o),
(147,697,o),
(144,677,cs)
);
}
);
width = 107;
}
);
metricLeft = N;
unicode = 39;
},
{
glyphname = at;
lastChange = "2022-02-22 17:30:25 +0000";
layers = (
{
layerId = m01;
shapes = (
{
closed = 1;
nodes = (
(270,0,o),
(319,49,o),
(356,96,cs),
(409,162,o),
(457,239,o),
(480,291,cs),
(484,300,l),
(439,300,l),
(411,253,o),
(378,204,o),
(323,135,cs),
(276,76,o),
(239,46,o),
(224,46,cs),
(206,46,o),
(206,61,o),
(206,77,cs),
(206,115,o),
(224,205,o),
(250,244,cs),
(280,289,o),
(331,299,o),
(365,299,cs),
(372,299,o),
(440,299,o),
(448,299,c),
(459,299,l),
(459,301,o),
(459,346,o),
(459,349,c),
(447,349,o),
(385,349,o),
(365,349,cs),
(308,349,o),
(249,332,o),
(211,275,cs),
(179,227,o),
(156,130,o),
(156,72,cs),
(156,21,o),
(179,0,o),
(212,0,cs)
);
},
{
closed = 1;
nodes = (
(492,349,o),
(477,349,cs),
(447,349,l),
(411,146,ls),
(407,122,o),
(404,95,o),
(404,77,cs),
(404,26,o),
(421,0,o),
(454,0,cs),
(510,0,o),
(553,54,o),
(589,105,c),
(551,135,l),
(522,92,o),
(478,48,o),
(469,48,cs),
(451,48,o),
(454,66,o),
(454,82,cs),
(454,93,o),
(459,124,o),
(460,132,cs),
(495,327,ls),
(498,343,o)
);
},
{
closed = 1;
nodes = (
(588,102,l),
(628,157,o),
(638,204,o),
(644,251,cs),
(664,403,o),
(581,479,o),
(422,479,cs),
(334,479,o),
(245,454,o),
(188,414,cs),
(100,352,o),
(54,228,o),
(39,110,cs),
(22,-20,o),
(67,-118,o),
(210,-118,cs),
(268,-118,o),
(310,-105,o),
(368,-68,cs),
(381,-60,o),
(389,-36,o),
(378,-22,cs),
(370,-11,o),
(357,-15,o),
(344,-24,cs),
(292,-60,o),
(247,-68,o),
(211,-68,cs),
(99,-68,o),
(73,4,o),
(89,104,cs),
(103,192,o),
(135,313,o),
(218,374,cs),
(260,405,o),
(338,429,o),
(431,429,cs),
(544,429,o),
(609,379,o),
(594,250,cs),
(590,214,o),
(577,173,o),
(548,132,c)
);
}
);
width = 683;
}
);
metricLeft = o;
metricRight = o;
unicode = 64;
},
{
glyphname = ampersand;
lastChange = "2022-02-22 13:11:07 +0000";
layers = (
{
layerId = m01;
shapes = (
{
closed = 1;
nodes = (
(389,4,o),
(407,-7,o),
(423,5,cs),
(435,14,o),
(432,29,o),
(424,41,cs),
(232,320,l,{
name = "❌";
}),
(164,324,l),
(103,279,o),
(63,227,o),
(51,161,cs),
(40,103,o),
(94,-4,o),
(177,-4,cs),
(304,-4,o),
(343,56,o),
(411,169,c),
(419,181,o),
(415,195,o),
(404,201,cs),
(391,208,o),
(375,203,o),
(366,190,c),
(305,96,o),
(283,46,o),
(179,46,cs),
(140,46,o),
(91,103,o),
(102,161,cs),
(110,205,o),
(145,249,o),
(196,285,c),
(382,14,ls)
);
},
{
closed = 1;
nodes = (
(321,371,o),
(388,432,o),
(371,493,cs),
(355,547,o),
(310,568,o),
(254,568,cs),
(169,568,o),
(104,510,o),
(104,445,cs),
(104,403,o),
(153,342,o),
(175,309,c),
(218,335,l),
(199,363,o),
(154,422,o),
(154,445,cs),
(154,485,o),
(199,518,o),
(254,518,cs),
(300,518,o),
(318,500,o),
(323,480,cs),
(331,449,o),
(267,388,o),
(166,324,c),
(234,309,l)
);
}
);
width = 497;
}
);
metricLeft = O;
metricRight = O;
unicode = 38;
},
{
glyphname = bar;
lastChange = "2022-02-22 17:32:30 +0000";
layers = (
{
layerId = m01;
shapes = (
{
closed = 1;
nodes = (
(22,-300,o),
(25,-285,o),
(27,-275,cs),
(194,673,ls),
(197,691,o),
(196,704,o),
(175,704,cs),
(153,704,o),
(147,693,o),
(144,677,cs),
(-24,-273,ls),
(-27,-288,o),
(-18,-300,o),
(0,-300,cs)
);
}
);
width = 161;
}
);
metricLeft = N;
metricRight = N;
unicode = 124;
},
{
glyphname = dollar;
lastChange = "2022-02-22 13:10:47 +0000";
layers = (
{
layerId = m01;
shapes = (
{
closed = 1;
nodes = (
(173,0,ls),
(271,0,o),
(445,17,o),
(445,152,cs),
(445,236,o),
(381,262,o),
(293,313,cs),
(229,350,o),
(164,381,o),
(164,419,cs),
(164,482,o),
(273,519,o),
(350,519,cs),
(493,519,ls),
(506,519,o),
(516,532,o),
(516,545,cs),
(516,564,o),
(504,569,o),
(489,569,cs),
(351,569,ls),
(219,569,o),
(114,503,o),
(114,419,cs),
(114,349,o),
(191,315,o),
(261,274,cs),
(345,225,o),
(395,206,o),
(395,152,cs),
(395,57,o),
(238,50,o),
(173,50,cs),
(53,50,ls),
(40,50,o),
(29,37,o),
(29,24,cs),
(29,0,o),
(51,0,o),
(53,0,cs)
);
},
{
closed = 1;
nodes = (
(241,-79,o),
(243,-64,o),
(245,-54,cs),
(364,618,ls),
(367,636,o),
(369,649,o),
(348,649,cs),
(326,649,o),
(326,638,o),
(323,622,cs),
(204,-52,ls),
(201,-67,o),
(204,-79,o),
(222,-79,cs)
);
}
);
width = 506;
}
);
metricLeft = N;
metricRight = N;
unicode = 36;
},
{
glyphname = plus;
lastChange = "2022-02-22 12:53:18 +0000";
layers = (
{
layerId = m01;
shapes = (
{
closed = 1;
nodes = (
(312,175,ls),
(332,175,o),
(338,184,o),
(338,196,cs),
(338,208,o),
(332,216,o),
(312,216,cs),
(85,216,ls),
(65,216,o),
(59,208,o),
(59,196,cs),
(59,184,o),
(65,175,o),
(85,175,cs)
);
},
{
closed = 1;
nodes = (
(238,304,ls),
(242,323,o),
(234,331,o),
(222,333,cs),
(210,335,o),
(202,331,o),
(198,311,cs),
(159,87,ls),
(155,68,o),
(162,60,o),
(174,58,cs),
(186,56,o),
(196,60,o),
(199,80,cs)
);
}
);
width = 390;
}
);
metricLeft = n;
metricRight = n;
unicode = 43;
},
{
glyphname = minus;
lastChange = "2022-02-22 13:57:34 +0000";
layers = (
{
layerId = m01;
shapes = (
{
closed = 1;
nodes = (
(312,175,ls),
(332,175,o),
(338,184,o),
(338,196,cs),
(338,208,o),
(332,216,o),
(312,216,cs),
(85,216,ls),
(65,216,o),
(59,208,o),
(59,196,cs),
(59,184,o),
(65,175,o),
(85,175,cs)
);
}
);
width = 390;
}
);
metricLeft = n;
metricRight = n;
unicode = 8722;
},
{
glyphname = multiply;
lastChange = "2022-02-22 17:33:18 +0000";
layers = (
{
layerId = m01;
shapes = (
{
closed = 1;
nodes = (
(61,0,o),
(69,5,o),
(74,10,cs),
(380,308,ls),
(385,313,o),
(389,317,o),
(389,327,cs),
(389,333,o),
(387,339,o),
(382,344,cs),
(377,349,o),
(370,350,o),
(363,350,cs),
(356,349,o),
(349,346,o),
(344,341,cs),
(37,44,ls),
(29,37,o),
(28,28,o),
(29,21,cs),
(30,16,o),
(33,11,o),
(37,6,cs),
(41,2,o),
(46,0,o),
(53,0,cs)
);
},
{
closed = 1;
nodes = (
(314,-1,o),
(322,3,o),
(327,8,cs),
(332,13,o),
(336,20,o),
(336,27,cs),
(336,33,o),
(334,39,o),
(330,44,cs),
(128,338,ls),
(123,345,o),
(117,350,o),
(109,350,cs),
(102,350,o),
(96,347,o),
(91,343,cs),
(86,339,o),
(83,333,o),
(82,327,cs),
(82,321,o),
(85,314,o),
(88,309,cs),
(292,10,ls),
(296,4,o),
(302,1,o),
(307,0,cs)
);
}
);
width = 418;
}
);
metricLeft = n;
metricRight = n;
unicode = 215;
},
{
glyphname = divide;
lastChange = "2022-02-22 13:10:28 +0000";
layers = (
{
layerId = m01;
shapes = (
{
closed = 1;
nodes = (
(312,175,ls),
(332,175,o),
(338,184,o),
(338,196,cs),
(338,208,o),
(332,216,o),
(312,216,cs),
(85,216,ls),
(65,216,o),
(59,208,o),
(59,196,cs),
(59,184,o),
(65,175,o),
(85,175,cs)
);
},
{
closed = 1;
nodes = (
(234,268,o),
(250,284,o),
(250,300,cs),
(250,319,o),
(234,334,o),
(216,334,cs),
(199,334,o),
(185,318,o),
(185,300,cs),
(185,285,o),
(199,268,o),
(216,268,cs)
);
},
{
closed = 1;
nodes = (
(196,57,o),
(212,72,o),
(212,88,cs),
(212,107,o),
(196,122,o),
(177,122,cs),
(160,122,o),
(147,106,o),
(147,88,cs),
(147,73,o),
(160,57,o),
(177,57,cs)
);
}
);
width = 390;
}
);
metricLeft = n;
metricRight = n;
unicode = 247;
},
{
glyphname = equal;
lastChange = "2022-02-22 13:16:32 +0000";
layers = (
{
layerId = m01;
shapes = (
{
closed = 1;
nodes = (
(329,268,ls),
(349,268,o),
(355,277,o),
(355,289,cs),
(355,301,o),
(349,309,o),
(329,309,cs),
(102,309,ls),
(82,309,o),
(76,301,o),
(76,289,cs),
(76,277,o),
(82,268,o),
(102,268,cs)
);
},
{
closed = 1;
nodes = (
(296,81,ls),
(316,81,o),
(322,90,o),
(322,102,cs),
(322,114,o),
(316,122,o),
(296,122,cs),
(69,122,ls),
(49,122,o),
(43,114,o),
(43,102,cs),
(43,90,o),
(49,81,o),
(69,81,cs)
);
}
);
width = 390;
}
);
metricLeft = n;
metricRight = n;
unicode = 61;
},
{
glyphname = greater;
lastChange = "2022-02-22 13:42:54 +0000";
layers = (
{
layerId = m01;
shapes = (
{
closed = 1;
nodes = (
(273,181,ls),
(288,171,o),
(299,176,o),
(306,186,cs),
(314,197,o),
(314,207,o),
(299,217,cs),
(122,330,ls),
(106,340,o),
(93,339,o),
(85,329,cs),
(77,318,o),
(80,304,o),
(95,294,cs)
);
},
{
closed = 1;
nodes = (
(300,179,l),
(274,216,l),
(59,103,ls),
(39,93,o),
(36,81,o),
(40,70,cs),
(44,60,o),
(55,50,o),
(74,60,cs)
);
}
);
width = 359;
}
);
metricLeft = n;
metricRight = o;
unicode = 62;
},
{
glyphname = less;
lastChange = "2022-02-22 17:30:33 +0000";
layers = (
{
layerId = m01;
shapes = (
{
closed = 1;
nodes = (
(92,212,ls),
(77,222,o),
(66,217,o),
(59,207,cs),
(51,196,o),
(51,186,o),
(66,176,cs),
(243,63,ls),
(259,53,o),
(272,54,o),
(280,64,cs),
(288,75,o),
(285,89,o),
(270,99,cs)
);
},
{
closed = 1;
nodes = (
(65,214,l),
(91,177,l),
(306,290,ls),
(326,300,o),
(329,312,o),
(325,323,cs),
(321,333,o),
(310,343,o),
(291,333,cs)
);
}
